<?xml version="1.0" encoding="UTF-8" standalone="no"?>
<!DOCTYPE svg PUBLIC "-//W3C//DTD SVG 1.1//EN"
 "http://www.w3.org/Graphics/SVG/1.1/DTD/svg11.dtd">
<!-- Generated by graphviz version 2.36.0 (20140111.2315)
 -->
<!-- Title: controllers_diagram Pages: 1 -->
<svg width="833pt" height="774pt"
 viewBox="0.00 0.00 833.00 774.00" xmlns="http://www.w3.org/2000/svg" xmlns:xlink="http://www.w3.org/1999/xlink">
<g id="graph0" class="graph" transform="scale(1 1) rotate(0) translate(4 770)">
<title>controllers_diagram</title>
<polygon fill="none" stroke="none" points="-4,4 -4,-770 829,-770 829,4 -4,4"/>
<!-- _diagram_info -->
<g id="node1" class="node"><title>_diagram_info</title>
<text text-anchor="start" x="168" y="-543.6" font-family="Times,serif" font-size="13.00">Controllers diagram</text>
<text text-anchor="start" x="168" y="-529.6" font-family="Times,serif" font-size="13.00">Date: Dec 20 2015 &#45; 22:38</text>
<text text-anchor="start" x="168" y="-515.6" font-family="Times,serif" font-size="13.00">Migration version: 20151220203133</text>
<text text-anchor="start" x="168" y="-501.6" font-family="Times,serif" font-size="13.00">Generated by RailRoady 1.4.2</text>
<text text-anchor="start" x="168" y="-487.6" font-family="Times,serif" font-size="13.00">http://railroady.prestonlee.com</text>
</g>
<!-- Customers::ConfirmationsController -->
<g id="node2" class="node"><title>Customers::ConfirmationsController</title>
<path fill="none" stroke="black" d="M412,-400.5C412,-400.5 605,-400.5 605,-400.5 611,-400.5 617,-406.5 617,-412.5 617,-412.5 617,-482.5 617,-482.5 617,-488.5 611,-494.5 605,-494.5 605,-494.5 412,-494.5 412,-494.5 406,-494.5 400,-488.5 400,-482.5 400,-482.5 400,-412.5 400,-412.5 400,-406.5 406,-400.5 412,-400.5"/>
<text text-anchor="middle" x="508.5" y="-479.3" font-family="Times,serif" font-size="14.00">Customers::ConfirmationsController</text>
<polyline fill="none" stroke="black" points="400,-471.5 617,-471.5 "/>
<polyline fill="none" stroke="black" points="400,-447.5 617,-447.5 "/>
<polyline fill="none" stroke="black" points="400,-423.5 617,-423.5 "/>
<text text-anchor="start" x="408" y="-408.3" font-family="Times,serif" font-size="14.00">_layout</text>
</g>
<!-- Customers::UnlocksController -->
<g id="node3" class="node"><title>Customers::UnlocksController</title>
<path fill="none" stroke="black" d="M588,-64.5C588,-64.5 747,-64.5 747,-64.5 753,-64.5 759,-70.5 759,-76.5 759,-76.5 759,-146.5 759,-146.5 759,-152.5 753,-158.5 747,-158.5 747,-158.5 588,-158.5 588,-158.5 582,-158.5 576,-152.5 576,-146.5 576,-146.5 576,-76.5 576,-76.5 576,-70.5 582,-64.5 588,-64.5"/>
<text text-anchor="middle" x="667.5" y="-143.3" font-family="Times,serif" font-size="14.00">Customers::UnlocksController</text>
<polyline fill="none" stroke="black" points="576,-135.5 759,-135.5 "/>
<polyline fill="none" stroke="black" points="576,-111.5 759,-111.5 "/>
<polyline fill="none" stroke="black" points="576,-87.5 759,-87.5 "/>
<text text-anchor="start" x="584" y="-72.3" font-family="Times,serif" font-size="14.00">_layout</text>
</g>
<!-- Customers::HomeController -->
<g id="node4" class="node"><title>Customers::HomeController</title>
<path fill="none" stroke="black" d="M108,-592.5C108,-592.5 256,-592.5 256,-592.5 262,-592.5 268,-598.5 268,-604.5 268,-604.5 268,-673.5 268,-673.5 268,-679.5 262,-685.5 256,-685.5 256,-685.5 108,-685.5 108,-685.5 102,-685.5 96,-679.5 96,-673.5 96,-673.5 96,-604.5 96,-604.5 96,-598.5 102,-592.5 108,-592.5"/>
<text text-anchor="middle" x="182" y="-670.3" font-family="Times,serif" font-size="14.00">Customers::HomeController</text>
<polyline fill="none" stroke="black" points="96,-662.5 268,-662.5 "/>
<text text-anchor="start" x="104" y="-647.3" font-family="Times,serif" font-size="14.00">index</text>
<polyline fill="none" stroke="black" points="96,-639.5 268,-639.5 "/>
<polyline fill="none" stroke="black" points="96,-615.5 268,-615.5 "/>
<text text-anchor="start" x="104" y="-600.3" font-family="Times,serif" font-size="14.00">_layout</text>
</g>
<!-- Customers::SessionsController -->
<g id="node5" class="node"><title>Customers::SessionsController</title>
<path fill="none" stroke="black" d="M540,-528.5C540,-528.5 701,-528.5 701,-528.5 707,-528.5 713,-534.5 713,-540.5 713,-540.5 713,-625.5 713,-625.5 713,-631.5 707,-637.5 701,-637.5 701,-637.5 540,-637.5 540,-637.5 534,-637.5 528,-631.5 528,-625.5 528,-625.5 528,-540.5 528,-540.5 528,-534.5 534,-528.5 540,-528.5"/>
<text text-anchor="middle" x="620.5" y="-622.3" font-family="Times,serif" font-size="14.00">Customers::SessionsController</text>
<polyline fill="none" stroke="black" points="528,-614.5 713,-614.5 "/>
<polyline fill="none" stroke="black" points="528,-590.5 713,-590.5 "/>
<polyline fill="none" stroke="black" points="528,-566.5 713,-566.5 "/>
<text text-anchor="start" x="536" y="-551.3" font-family="Times,serif" font-size="14.00">_layout</text>
<text text-anchor="start" x="536" y="-536.3" font-family="Times,serif" font-size="14.00">ensure_shop_not_signed_in</text>
</g>
<!-- Customers::RegistrationsController -->
<g id="node6" class="node"><title>Customers::RegistrationsController</title>
<path fill="none" stroke="black" d="M220,-256.5C220,-256.5 405,-256.5 405,-256.5 411,-256.5 417,-262.5 417,-268.5 417,-268.5 417,-352.5 417,-352.5 417,-358.5 411,-364.5 405,-364.5 405,-364.5 220,-364.5 220,-364.5 214,-364.5 208,-358.5 208,-352.5 208,-352.5 208,-268.5 208,-268.5 208,-262.5 214,-256.5 220,-256.5"/>
<text text-anchor="middle" x="312.5" y="-349.3" font-family="Times,serif" font-size="14.00">Customers::RegistrationsController</text>
<polyline fill="none" stroke="black" points="208,-341.5 417,-341.5 "/>
<polyline fill="none" stroke="black" points="208,-317.5 417,-317.5 "/>
<text text-anchor="start" x="216" y="-302.3" font-family="Times,serif" font-size="14.00">configure_account_update_params</text>
<text text-anchor="start" x="216" y="-287.3" font-family="Times,serif" font-size="14.00">configure_sign_up_params</text>
<polyline fill="none" stroke="black" points="208,-279.5 417,-279.5 "/>
<text text-anchor="start" x="216" y="-264.3" font-family="Times,serif" font-size="14.00">_layout</text>
</g>
<!-- Customers::PasswordsController -->
<g id="node7" class="node"><title>Customers::PasswordsController</title>
<path fill="none" stroke="black" d="M140,-128.5C140,-128.5 311,-128.5 311,-128.5 317,-128.5 323,-134.5 323,-140.5 323,-140.5 323,-210.5 323,-210.5 323,-216.5 317,-222.5 311,-222.5 311,-222.5 140,-222.5 140,-222.5 134,-222.5 128,-216.5 128,-210.5 128,-210.5 128,-140.5 128,-140.5 128,-134.5 134,-128.5 140,-128.5"/>
<text text-anchor="middle" x="225.5" y="-207.3" font-family="Times,serif" font-size="14.00">Customers::PasswordsController</text>
<polyline fill="none" stroke="black" points="128,-199.5 323,-199.5 "/>
<polyline fill="none" stroke="black" points="128,-175.5 323,-175.5 "/>
<polyline fill="none" stroke="black" points="128,-151.5 323,-151.5 "/>
<text text-anchor="start" x="136" y="-136.3" font-family="Times,serif" font-size="14.00">_layout</text>
</g>
<!-- HomeController -->
<g id="node8" class="node"><title>HomeController</title>
<path fill="none" stroke="black" d="M204,-0.5C204,-0.5 286,-0.5 286,-0.5 292,-0.5 298,-6.5 298,-12.5 298,-12.5 298,-81.5 298,-81.5 298,-87.5 292,-93.5 286,-93.5 286,-93.5 204,-93.5 204,-93.5 198,-93.5 192,-87.5 192,-81.5 192,-81.5 192,-12.5 192,-12.5 192,-6.5 198,-0.5 204,-0.5"/>
<text text-anchor="middle" x="245" y="-78.3" font-family="Times,serif" font-size="14.00">HomeController</text>
<polyline fill="none" stroke="black" points="192,-70.5 298,-70.5 "/>
<text text-anchor="start" x="200" y="-55.3" font-family="Times,serif" font-size="14.00">index</text>
<polyline fill="none" stroke="black" points="192,-47.5 298,-47.5 "/>
<polyline fill="none" stroke="black" points="192,-23.5 298,-23.5 "/>
<text text-anchor="start" x="200" y="-8.3" font-family="Times,serif" font-size="14.00">_layout</text>
</g>
<!-- ApplicationController -->
<g id="node9" class="node"><title>ApplicationController</title>
<path fill="none" stroke="black" d="M668,-336.5C668,-336.5 784,-336.5 784,-336.5 790,-336.5 796,-342.5 796,-348.5 796,-348.5 796,-432.5 796,-432.5 796,-438.5 790,-444.5 784,-444.5 784,-444.5 668,-444.5 668,-444.5 662,-444.5 656,-438.5 656,-432.5 656,-432.5 656,-348.5 656,-348.5 656,-342.5 662,-336.5 668,-336.5"/>
<text text-anchor="middle" x="726" y="-429.3" font-family="Times,serif" font-size="14.00">ApplicationController</text>
<polyline fill="none" stroke="black" points="656,-421.5 796,-421.5 "/>
<text text-anchor="start" x="664" y="-406.3" font-family="Times,serif" font-size="14.00">after_sign_in_path_for</text>
<text text-anchor="start" x="664" y="-391.3" font-family="Times,serif" font-size="14.00">store_location</text>
<polyline fill="none" stroke="black" points="656,-383.5 796,-383.5 "/>
<polyline fill="none" stroke="black" points="656,-359.5 796,-359.5 "/>
<text text-anchor="start" x="664" y="-344.3" font-family="Times,serif" font-size="14.00">_layout</text>
</g>
<!-- HelloWorldController -->
<g id="node10" class="node"><title>HelloWorldController</title>
<path fill="none" stroke="black" d="M700,-192.5C700,-192.5 813,-192.5 813,-192.5 819,-192.5 825,-198.5 825,-204.5 825,-204.5 825,-273.5 825,-273.5 825,-279.5 819,-285.5 813,-285.5 813,-285.5 700,-285.5 700,-285.5 694,-285.5 688,-279.5 688,-273.5 688,-273.5 688,-204.5 688,-204.5 688,-198.5 694,-192.5 700,-192.5"/>
<text text-anchor="middle" x="756.5" y="-270.3" font-family="Times,serif" font-size="14.00">HelloWorldController</text>
<polyline fill="none" stroke="black" points="688,-262.5 825,-262.5 "/>
<text text-anchor="start" x="696" y="-247.3" font-family="Times,serif" font-size="14.00">index</text>
<polyline fill="none" stroke="black" points="688,-239.5 825,-239.5 "/>
<polyline fill="none" stroke="black" points="688,-215.5 825,-215.5 "/>
<text text-anchor="start" x="696" y="-200.3" font-family="Times,serif" font-size="14.00">_layout</text>
</g>
<!-- Shops::ConfirmationsController -->
<g id="node11" class="node"><title>Shops::ConfirmationsController</title>
<path fill="none" stroke="black" d="M316,-592.5C316,-592.5 483,-592.5 483,-592.5 489,-592.5 495,-598.5 495,-604.5 495,-604.5 495,-674.5 495,-674.5 495,-680.5 489,-686.5 483,-686.5 483,-686.5 316,-686.5 316,-686.5 310,-686.5 304,-680.5 304,-674.5 304,-674.5 304,-604.5 304,-604.5 304,-598.5 310,-592.5 316,-592.5"/>
<text text-anchor="middle" x="399.5" y="-671.3" font-family="Times,serif" font-size="14.00">Shops::ConfirmationsController</text>
<polyline fill="none" stroke="black" points="304,-663.5 495,-663.5 "/>
<polyline fill="none" stroke="black" points="304,-639.5 495,-639.5 "/>
<polyline fill="none" stroke="black" points="304,-615.5 495,-615.5 "/>
<text text-anchor="start" x="312" y="-600.3" font-family="Times,serif" font-size="14.00">_layout</text>
</g>
<!-- Shops::UnlocksController -->
<g id="node12" class="node"><title>Shops::UnlocksController</title>
<path fill="none" stroke="black" d="M12,-0.5C12,-0.5 146,-0.5 146,-0.5 152,-0.5 158,-6.5 158,-12.5 158,-12.5 158,-82.5 158,-82.5 158,-88.5 152,-94.5 146,-94.5 146,-94.5 12,-94.5 12,-94.5 6,-94.5 -2.84217e-14,-88.5 -2.84217e-14,-82.5 -2.84217e-14,-82.5 -2.84217e-14,-12.5 -2.84217e-14,-12.5 -2.84217e-14,-6.5 6,-0.5 12,-0.5"/>
<text text-anchor="middle" x="79" y="-79.3" font-family="Times,serif" font-size="14.00">Shops::UnlocksController</text>
<polyline fill="none" stroke="black" points="-2.84217e-14,-71.5 158,-71.5 "/>
<polyline fill="none" stroke="black" points="-2.84217e-14,-47.5 158,-47.5 "/>
<polyline fill="none" stroke="black" points="-2.84217e-14,-23.5 158,-23.5 "/>
<text text-anchor="start" x="8" y="-8.3" font-family="Times,serif" font-size="14.00">_layout</text>
</g>
<!-- Shops::HomeController -->
<g id="node13" class="node"><title>Shops::HomeController</title>
<path fill="none" stroke="black" d="M684,-672.5C684,-672.5 806,-672.5 806,-672.5 812,-672.5 818,-678.5 818,-684.5 818,-684.5 818,-753.5 818,-753.5 818,-759.5 812,-765.5 806,-765.5 806,-765.5 684,-765.5 684,-765.5 678,-765.5 672,-759.5 672,-753.5 672,-753.5 672,-684.5 672,-684.5 672,-678.5 678,-672.5 684,-672.5"/>
<text text-anchor="middle" x="745" y="-750.3" font-family="Times,serif" font-size="14.00">Shops::HomeController</text>
<polyline fill="none" stroke="black" points="672,-742.5 818,-742.5 "/>
<text text-anchor="start" x="680" y="-727.3" font-family="Times,serif" font-size="14.00">index</text>
<polyline fill="none" stroke="black" points="672,-719.5 818,-719.5 "/>
<polyline fill="none" stroke="black" points="672,-695.5 818,-695.5 "/>
<text text-anchor="start" x="680" y="-680.3" font-family="Times,serif" font-size="14.00">_layout</text>
</g>
<!-- Shops::SessionsController -->
<g id="node14" class="node"><title>Shops::SessionsController</title>
<path fill="none" stroke="black" d="M364,-48.5C364,-48.5 532,-48.5 532,-48.5 538,-48.5 544,-54.5 544,-60.5 544,-60.5 544,-145.5 544,-145.5 544,-151.5 538,-157.5 532,-157.5 532,-157.5 364,-157.5 364,-157.5 358,-157.5 352,-151.5 352,-145.5 352,-145.5 352,-60.5 352,-60.5 352,-54.5 358,-48.5 364,-48.5"/>
<text text-anchor="middle" x="448" y="-142.3" font-family="Times,serif" font-size="14.00">Shops::SessionsController</text>
<polyline fill="none" stroke="black" points="352,-134.5 544,-134.5 "/>
<polyline fill="none" stroke="black" points="352,-110.5 544,-110.5 "/>
<polyline fill="none" stroke="black" points="352,-86.5 544,-86.5 "/>
<text text-anchor="start" x="360" y="-71.3" font-family="Times,serif" font-size="14.00">_layout</text>
<text text-anchor="start" x="360" y="-56.3" font-family="Times,serif" font-size="14.00">ensure_customer_not_signed_in</text>
</g>
<!-- Shops::RegistrationsController -->
<g id="node15" class="node"><title>Shops::RegistrationsController</title>
<path fill="none" stroke="black" d="M460,-192.5C460,-192.5 642,-192.5 642,-192.5 648,-192.5 654,-198.5 654,-204.5 654,-204.5 654,-288.5 654,-288.5 654,-294.5 648,-300.5 642,-300.5 642,-300.5 460,-300.5 460,-300.5 454,-300.5 448,-294.5 448,-288.5 448,-288.5 448,-204.5 448,-204.5 448,-198.5 454,-192.5 460,-192.5"/>
<text text-anchor="middle" x="551" y="-285.3" font-family="Times,serif" font-size="14.00">Shops::RegistrationsController</text>
<polyline fill="none" stroke="black" points="448,-277.5 654,-277.5 "/>
<polyline fill="none" stroke="black" points="448,-253.5 654,-253.5 "/>
<text text-anchor="start" x="456" y="-238.3" font-family="Times,serif" font-size="14.00">configure_account_update_params</text>
<text text-anchor="start" x="456" y="-223.3" font-family="Times,serif" font-size="14.00">configure_sign_up_params</text>
<polyline fill="none" stroke="black" points="448,-215.5 654,-215.5 "/>
<text text-anchor="start" x="456" y="-200.3" font-family="Times,serif" font-size="14.00">_layout</text>
</g>
<!-- Shops::PasswordsController -->
<g id="node16" class="node"><title>Shops::PasswordsController</title>
<path fill="none" stroke="black" d="M12,-352.5C12,-352.5 158,-352.5 158,-352.5 164,-352.5 170,-358.5 170,-364.5 170,-364.5 170,-434.5 170,-434.5 170,-440.5 164,-446.5 158,-446.5 158,-446.5 12,-446.5 12,-446.5 6,-446.5 0,-440.5 0,-434.5 0,-434.5 0,-364.5 0,-364.5 0,-358.5 6,-352.5 12,-352.5"/>
<text text-anchor="middle" x="85" y="-431.3" font-family="Times,serif" font-size="14.00">Shops::PasswordsController</text>
<polyline fill="none" stroke="black" points="0,-423.5 170,-423.5 "/>
<polyline fill="none" stroke="black" points="0,-399.5 170,-399.5 "/>
<polyline fill="none" stroke="black" points="0,-375.5 170,-375.5 "/>
<text text-anchor="start" x="8" y="-360.3" font-family="Times,serif" font-size="14.00">_layout</text>
</g>
</g>
</svg>
