<?xml version="1.0" encoding="UTF-8" standalone="no"?>
<!DOCTYPE svg PUBLIC "-//W3C//DTD SVG 1.1//EN"
 "http://www.w3.org/Graphics/SVG/1.1/DTD/svg11.dtd">
<!-- Generated by graphviz version 2.36.0 (20140111.2315)
 -->
<!-- Title: controllers_diagram Pages: 1 -->
<svg width="854pt" height="695pt"
 viewBox="0.00 0.00 854.00 695.00" xmlns="http://www.w3.org/2000/svg" xmlns:xlink="http://www.w3.org/1999/xlink">
<g id="graph0" class="graph" transform="scale(1 1) rotate(0) translate(4 691)">
<title>controllers_diagram</title>
<polygon fill="none" stroke="none" points="-4,4 -4,-691 850,-691 850,4 -4,4"/>
<!-- _diagram_info -->
<g id="node1" class="node"><title>_diagram_info</title>
<text text-anchor="start" x="200" y="-543.6" font-family="Times,serif" font-size="13.00">Controllers diagram</text>
<text text-anchor="start" x="200" y="-529.6" font-family="Times,serif" font-size="13.00">Date: Dec 12 2015 &#45; 22:43</text>
<text text-anchor="start" x="200" y="-515.6" font-family="Times,serif" font-size="13.00">Migration version: 20151207211752</text>
<text text-anchor="start" x="200" y="-501.6" font-family="Times,serif" font-size="13.00">Generated by RailRoady 1.4.1</text>
<text text-anchor="start" x="200" y="-487.6" font-family="Times,serif" font-size="13.00">http://railroady.prestonlee.com</text>
</g>
<!-- Customers::ConfirmationsController -->
<g id="node2" class="node"><title>Customers::ConfirmationsController</title>
<path fill="none" stroke="black" d="M444,-432.5C444,-432.5 637,-432.5 637,-432.5 643,-432.5 649,-438.5 649,-444.5 649,-444.5 649,-514.5 649,-514.5 649,-520.5 643,-526.5 637,-526.5 637,-526.5 444,-526.5 444,-526.5 438,-526.5 432,-520.5 432,-514.5 432,-514.5 432,-444.5 432,-444.5 432,-438.5 438,-432.5 444,-432.5"/>
<text text-anchor="middle" x="540.5" y="-511.3" font-family="Times,serif" font-size="14.00">Customers::ConfirmationsController</text>
<polyline fill="none" stroke="black" points="432,-503.5 649,-503.5 "/>
<polyline fill="none" stroke="black" points="432,-479.5 649,-479.5 "/>
<polyline fill="none" stroke="black" points="432,-455.5 649,-455.5 "/>
<text text-anchor="start" x="440" y="-440.3" font-family="Times,serif" font-size="14.00">_layout</text>
</g>
<!-- Customers::UnlocksController -->
<g id="node3" class="node"><title>Customers::UnlocksController</title>
<path fill="none" stroke="black" d="M588,-96.5C588,-96.5 747,-96.5 747,-96.5 753,-96.5 759,-102.5 759,-108.5 759,-108.5 759,-178.5 759,-178.5 759,-184.5 753,-190.5 747,-190.5 747,-190.5 588,-190.5 588,-190.5 582,-190.5 576,-184.5 576,-178.5 576,-178.5 576,-108.5 576,-108.5 576,-102.5 582,-96.5 588,-96.5"/>
<text text-anchor="middle" x="667.5" y="-175.3" font-family="Times,serif" font-size="14.00">Customers::UnlocksController</text>
<polyline fill="none" stroke="black" points="576,-167.5 759,-167.5 "/>
<polyline fill="none" stroke="black" points="576,-143.5 759,-143.5 "/>
<polyline fill="none" stroke="black" points="576,-119.5 759,-119.5 "/>
<text text-anchor="start" x="584" y="-104.3" font-family="Times,serif" font-size="14.00">_layout</text>
</g>
<!-- Customers::HomeController -->
<g id="node4" class="node"><title>Customers::HomeController</title>
<path fill="none" stroke="black" d="M28,-352.5C28,-352.5 176,-352.5 176,-352.5 182,-352.5 188,-358.5 188,-364.5 188,-364.5 188,-433.5 188,-433.5 188,-439.5 182,-445.5 176,-445.5 176,-445.5 28,-445.5 28,-445.5 22,-445.5 16,-439.5 16,-433.5 16,-433.5 16,-364.5 16,-364.5 16,-358.5 22,-352.5 28,-352.5"/>
<text text-anchor="middle" x="102" y="-430.3" font-family="Times,serif" font-size="14.00">Customers::HomeController</text>
<polyline fill="none" stroke="black" points="16,-422.5 188,-422.5 "/>
<text text-anchor="start" x="24" y="-407.3" font-family="Times,serif" font-size="14.00">index</text>
<polyline fill="none" stroke="black" points="16,-399.5 188,-399.5 "/>
<polyline fill="none" stroke="black" points="16,-375.5 188,-375.5 "/>
<text text-anchor="start" x="24" y="-360.3" font-family="Times,serif" font-size="14.00">_layout</text>
</g>
<!-- Customers::SessionsController -->
<g id="node5" class="node"><title>Customers::SessionsController</title>
<path fill="none" stroke="black" d="M140,-128.5C140,-128.5 301,-128.5 301,-128.5 307,-128.5 313,-134.5 313,-140.5 313,-140.5 313,-225.5 313,-225.5 313,-231.5 307,-237.5 301,-237.5 301,-237.5 140,-237.5 140,-237.5 134,-237.5 128,-231.5 128,-225.5 128,-225.5 128,-140.5 128,-140.5 128,-134.5 134,-128.5 140,-128.5"/>
<text text-anchor="middle" x="220.5" y="-222.3" font-family="Times,serif" font-size="14.00">Customers::SessionsController</text>
<polyline fill="none" stroke="black" points="128,-214.5 313,-214.5 "/>
<polyline fill="none" stroke="black" points="128,-190.5 313,-190.5 "/>
<polyline fill="none" stroke="black" points="128,-166.5 313,-166.5 "/>
<text text-anchor="start" x="136" y="-151.3" font-family="Times,serif" font-size="14.00">_layout</text>
<text text-anchor="start" x="136" y="-136.3" font-family="Times,serif" font-size="14.00">ensure_shop_not_signed_in</text>
</g>
<!-- Customers::RegistrationsController -->
<g id="node6" class="node"><title>Customers::RegistrationsController</title>
<path fill="none" stroke="black" d="M460,-224.5C460,-224.5 645,-224.5 645,-224.5 651,-224.5 657,-230.5 657,-236.5 657,-236.5 657,-306.5 657,-306.5 657,-312.5 651,-318.5 645,-318.5 645,-318.5 460,-318.5 460,-318.5 454,-318.5 448,-312.5 448,-306.5 448,-306.5 448,-236.5 448,-236.5 448,-230.5 454,-224.5 460,-224.5"/>
<text text-anchor="middle" x="552.5" y="-303.3" font-family="Times,serif" font-size="14.00">Customers::RegistrationsController</text>
<polyline fill="none" stroke="black" points="448,-295.5 657,-295.5 "/>
<polyline fill="none" stroke="black" points="448,-271.5 657,-271.5 "/>
<polyline fill="none" stroke="black" points="448,-247.5 657,-247.5 "/>
<text text-anchor="start" x="456" y="-232.3" font-family="Times,serif" font-size="14.00">_layout</text>
</g>
<!-- Customers::PasswordsController -->
<g id="node7" class="node"><title>Customers::PasswordsController</title>
<path fill="none" stroke="black" d="M572,-560.5C572,-560.5 743,-560.5 743,-560.5 749,-560.5 755,-566.5 755,-572.5 755,-572.5 755,-642.5 755,-642.5 755,-648.5 749,-654.5 743,-654.5 743,-654.5 572,-654.5 572,-654.5 566,-654.5 560,-648.5 560,-642.5 560,-642.5 560,-572.5 560,-572.5 560,-566.5 566,-560.5 572,-560.5"/>
<text text-anchor="middle" x="657.5" y="-639.3" font-family="Times,serif" font-size="14.00">Customers::PasswordsController</text>
<polyline fill="none" stroke="black" points="560,-631.5 755,-631.5 "/>
<polyline fill="none" stroke="black" points="560,-607.5 755,-607.5 "/>
<polyline fill="none" stroke="black" points="560,-583.5 755,-583.5 "/>
<text text-anchor="start" x="568" y="-568.3" font-family="Times,serif" font-size="14.00">_layout</text>
</g>
<!-- HomeController -->
<g id="node8" class="node"><title>HomeController</title>
<path fill="none" stroke="black" d="M220,-0.5C220,-0.5 302,-0.5 302,-0.5 308,-0.5 314,-6.5 314,-12.5 314,-12.5 314,-81.5 314,-81.5 314,-87.5 308,-93.5 302,-93.5 302,-93.5 220,-93.5 220,-93.5 214,-93.5 208,-87.5 208,-81.5 208,-81.5 208,-12.5 208,-12.5 208,-6.5 214,-0.5 220,-0.5"/>
<text text-anchor="middle" x="261" y="-78.3" font-family="Times,serif" font-size="14.00">HomeController</text>
<polyline fill="none" stroke="black" points="208,-70.5 314,-70.5 "/>
<text text-anchor="start" x="216" y="-55.3" font-family="Times,serif" font-size="14.00">index</text>
<polyline fill="none" stroke="black" points="208,-47.5 314,-47.5 "/>
<polyline fill="none" stroke="black" points="208,-23.5 314,-23.5 "/>
<text text-anchor="start" x="216" y="-8.3" font-family="Times,serif" font-size="14.00">_layout</text>
</g>
<!-- ApplicationController -->
<g id="node9" class="node"><title>ApplicationController</title>
<path fill="none" stroke="black" d="M236,-272.5C236,-272.5 406,-272.5 406,-272.5 412,-272.5 418,-278.5 418,-284.5 418,-284.5 418,-383.5 418,-383.5 418,-389.5 412,-395.5 406,-395.5 406,-395.5 236,-395.5 236,-395.5 230,-395.5 224,-389.5 224,-383.5 224,-383.5 224,-284.5 224,-284.5 224,-278.5 230,-272.5 236,-272.5"/>
<text text-anchor="middle" x="321" y="-380.3" font-family="Times,serif" font-size="14.00">ApplicationController</text>
<polyline fill="none" stroke="black" points="224,-372.5 418,-372.5 "/>
<text text-anchor="start" x="232" y="-357.3" font-family="Times,serif" font-size="14.00">after_sign_in_path_for</text>
<text text-anchor="start" x="232" y="-342.3" font-family="Times,serif" font-size="14.00">configure_permitted_parameters</text>
<text text-anchor="start" x="232" y="-327.3" font-family="Times,serif" font-size="14.00">store_location</text>
<polyline fill="none" stroke="black" points="224,-319.5 418,-319.5 "/>
<polyline fill="none" stroke="black" points="224,-295.5 418,-295.5 "/>
<text text-anchor="start" x="232" y="-280.3" font-family="Times,serif" font-size="14.00">_layout</text>
</g>
<!-- Shops::ConfirmationsController -->
<g id="node10" class="node"><title>Shops::ConfirmationsController</title>
<path fill="none" stroke="black" d="M348,-592.5C348,-592.5 515,-592.5 515,-592.5 521,-592.5 527,-598.5 527,-604.5 527,-604.5 527,-674.5 527,-674.5 527,-680.5 521,-686.5 515,-686.5 515,-686.5 348,-686.5 348,-686.5 342,-686.5 336,-680.5 336,-674.5 336,-674.5 336,-604.5 336,-604.5 336,-598.5 342,-592.5 348,-592.5"/>
<text text-anchor="middle" x="431.5" y="-671.3" font-family="Times,serif" font-size="14.00">Shops::ConfirmationsController</text>
<polyline fill="none" stroke="black" points="336,-663.5 527,-663.5 "/>
<polyline fill="none" stroke="black" points="336,-639.5 527,-639.5 "/>
<polyline fill="none" stroke="black" points="336,-615.5 527,-615.5 "/>
<text text-anchor="start" x="344" y="-600.3" font-family="Times,serif" font-size="14.00">_layout</text>
</g>
<!-- Shops::UnlocksController -->
<g id="node11" class="node"><title>Shops::UnlocksController</title>
<path fill="none" stroke="black" d="M700,-224.5C700,-224.5 834,-224.5 834,-224.5 840,-224.5 846,-230.5 846,-236.5 846,-236.5 846,-306.5 846,-306.5 846,-312.5 840,-318.5 834,-318.5 834,-318.5 700,-318.5 700,-318.5 694,-318.5 688,-312.5 688,-306.5 688,-306.5 688,-236.5 688,-236.5 688,-230.5 694,-224.5 700,-224.5"/>
<text text-anchor="middle" x="767" y="-303.3" font-family="Times,serif" font-size="14.00">Shops::UnlocksController</text>
<polyline fill="none" stroke="black" points="688,-295.5 846,-295.5 "/>
<polyline fill="none" stroke="black" points="688,-271.5 846,-271.5 "/>
<polyline fill="none" stroke="black" points="688,-247.5 846,-247.5 "/>
<text text-anchor="start" x="696" y="-232.3" font-family="Times,serif" font-size="14.00">_layout</text>
</g>
<!-- Shops::HomeController -->
<g id="node12" class="node"><title>Shops::HomeController</title>
<path fill="none" stroke="black" d="M700,-352.5C700,-352.5 822,-352.5 822,-352.5 828,-352.5 834,-358.5 834,-364.5 834,-364.5 834,-433.5 834,-433.5 834,-439.5 828,-445.5 822,-445.5 822,-445.5 700,-445.5 700,-445.5 694,-445.5 688,-439.5 688,-433.5 688,-433.5 688,-364.5 688,-364.5 688,-358.5 694,-352.5 700,-352.5"/>
<text text-anchor="middle" x="761" y="-430.3" font-family="Times,serif" font-size="14.00">Shops::HomeController</text>
<polyline fill="none" stroke="black" points="688,-422.5 834,-422.5 "/>
<text text-anchor="start" x="696" y="-407.3" font-family="Times,serif" font-size="14.00">index</text>
<polyline fill="none" stroke="black" points="688,-399.5 834,-399.5 "/>
<polyline fill="none" stroke="black" points="688,-375.5 834,-375.5 "/>
<text text-anchor="start" x="696" y="-360.3" font-family="Times,serif" font-size="14.00">_layout</text>
</g>
<!-- Shops::SessionsController -->
<g id="node13" class="node"><title>Shops::SessionsController</title>
<path fill="none" stroke="black" d="M364,-80.5C364,-80.5 532,-80.5 532,-80.5 538,-80.5 544,-86.5 544,-92.5 544,-92.5 544,-177.5 544,-177.5 544,-183.5 538,-189.5 532,-189.5 532,-189.5 364,-189.5 364,-189.5 358,-189.5 352,-183.5 352,-177.5 352,-177.5 352,-92.5 352,-92.5 352,-86.5 358,-80.5 364,-80.5"/>
<text text-anchor="middle" x="448" y="-174.3" font-family="Times,serif" font-size="14.00">Shops::SessionsController</text>
<polyline fill="none" stroke="black" points="352,-166.5 544,-166.5 "/>
<polyline fill="none" stroke="black" points="352,-142.5 544,-142.5 "/>
<polyline fill="none" stroke="black" points="352,-118.5 544,-118.5 "/>
<text text-anchor="start" x="360" y="-103.3" font-family="Times,serif" font-size="14.00">_layout</text>
<text text-anchor="start" x="360" y="-88.3" font-family="Times,serif" font-size="14.00">ensure_customer_not_signed_in</text>
</g>
<!-- Shops::RegistrationsController -->
<g id="node14" class="node"><title>Shops::RegistrationsController</title>
<path fill="none" stroke="black" d="M124,-592.5C124,-592.5 284,-592.5 284,-592.5 290,-592.5 296,-598.5 296,-604.5 296,-604.5 296,-674.5 296,-674.5 296,-680.5 290,-686.5 284,-686.5 284,-686.5 124,-686.5 124,-686.5 118,-686.5 112,-680.5 112,-674.5 112,-674.5 112,-604.5 112,-604.5 112,-598.5 118,-592.5 124,-592.5"/>
<text text-anchor="middle" x="204" y="-671.3" font-family="Times,serif" font-size="14.00">Shops::RegistrationsController</text>
<polyline fill="none" stroke="black" points="112,-663.5 296,-663.5 "/>
<polyline fill="none" stroke="black" points="112,-639.5 296,-639.5 "/>
<polyline fill="none" stroke="black" points="112,-615.5 296,-615.5 "/>
<text text-anchor="start" x="120" y="-600.3" font-family="Times,serif" font-size="14.00">_layout</text>
</g>
<!-- Shops::PasswordsController -->
<g id="node15" class="node"><title>Shops::PasswordsController</title>
<path fill="none" stroke="black" d="M12,-0.5C12,-0.5 158,-0.5 158,-0.5 164,-0.5 170,-6.5 170,-12.5 170,-12.5 170,-82.5 170,-82.5 170,-88.5 164,-94.5 158,-94.5 158,-94.5 12,-94.5 12,-94.5 6,-94.5 0,-88.5 0,-82.5 0,-82.5 0,-12.5 0,-12.5 0,-6.5 6,-0.5 12,-0.5"/>
<text text-anchor="middle" x="85" y="-79.3" font-family="Times,serif" font-size="14.00">Shops::PasswordsController</text>
<polyline fill="none" stroke="black" points="0,-71.5 170,-71.5 "/>
<polyline fill="none" stroke="black" points="0,-47.5 170,-47.5 "/>
<polyline fill="none" stroke="black" points="0,-23.5 170,-23.5 "/>
<text text-anchor="start" x="8" y="-8.3" font-family="Times,serif" font-size="14.00">_layout</text>
</g>
</g>
</svg>
