<?xml version="1.0" encoding="UTF-8" standalone="no"?>
<!DOCTYPE svg PUBLIC "-//W3C//DTD SVG 1.1//EN"
 "http://www.w3.org/Graphics/SVG/1.1/DTD/svg11.dtd">
<!-- Generated by graphviz version 2.36.0 (20140111.2315)
 -->
<!-- Title: models_diagram Pages: 1 -->
<svg width="687pt" height="396pt"
 viewBox="0.00 0.00 687.00 396.00" xmlns="http://www.w3.org/2000/svg" xmlns:xlink="http://www.w3.org/1999/xlink">
<g id="graph0" class="graph" transform="scale(1 1) rotate(0) translate(4 392)">
<title>models_diagram</title>
<polygon fill="none" stroke="none" points="-4,4 -4,-392 683,-392 683,4 -4,4"/>
<!-- _diagram_info -->
<g id="node1" class="node"><title>_diagram_info</title>
<text text-anchor="start" x="31" y="-373.6" font-family="Times,serif" font-size="13.00">Models diagram</text>
<text text-anchor="start" x="31" y="-359.6" font-family="Times,serif" font-size="13.00">Date: Dec 20 2015 &#45; 22:38</text>
<text text-anchor="start" x="31" y="-345.6" font-family="Times,serif" font-size="13.00">Migration version: 20151220203133</text>
<text text-anchor="start" x="31" y="-331.6" font-family="Times,serif" font-size="13.00">Generated by RailRoady 1.4.2</text>
<text text-anchor="start" x="31" y="-317.6" font-family="Times,serif" font-size="13.00">http://railroady.prestonlee.com</text>
</g>
<!-- DiscountCard -->
<g id="node2" class="node"><title>DiscountCard</title>
<ellipse fill="none" stroke="black" cx="331" cy="-92" rx="59.1941" ry="18"/>
<text text-anchor="middle" x="331" y="-88.3" font-family="Times,serif" font-size="14.00">DiscountCard</text>
</g>
<!-- Barcode -->
<g id="node8" class="node"><title>Barcode</title>
<ellipse fill="none" stroke="black" cx="251" cy="-18" rx="39.9464" ry="18"/>
<text text-anchor="middle" x="251" y="-14.3" font-family="Times,serif" font-size="14.00">Barcode</text>
</g>
<!-- DiscountCard&#45;&gt;Barcode -->
<g id="edge1" class="edge"><title>DiscountCard&#45;&gt;Barcode</title>
<path fill="none" stroke="#e44049" d="M306.614,-69.0529C296.352,-59.8172 284.464,-49.1178 274.32,-39.9877"/>
<ellipse fill="none" stroke="#e44049" cx="309.874" cy="-71.9862" rx="4.00002" ry="4.00002"/>
<ellipse fill="#e44049" stroke="#e44049" cx="271.232" cy="-37.2088" rx="4.00002" ry="4.00002"/>
</g>
<!-- Coupon -->
<g id="node3" class="node"><title>Coupon</title>
<ellipse fill="none" stroke="black" cx="215" cy="-92" rx="38.0212" ry="18"/>
<text text-anchor="middle" x="215" y="-88.3" font-family="Times,serif" font-size="14.00">Coupon</text>
</g>
<!-- Coupon&#45;&gt;Barcode -->
<g id="edge2" class="edge"><title>Coupon&#45;&gt;Barcode</title>
<path fill="none" stroke="#7f5b66" d="M227.042,-66.9163C230.828,-59.3442 235.01,-50.9793 238.807,-43.3863"/>
<ellipse fill="none" stroke="#7f5b66" cx="225.138" cy="-70.7231" rx="4.00002" ry="4.00002"/>
<ellipse fill="#7f5b66" stroke="#7f5b66" cx="240.657" cy="-39.6864" rx="4.00002" ry="4.00002"/>
</g>
<!-- Locale -->
<g id="node4" class="node"><title>Locale</title>
<ellipse fill="none" stroke="black" cx="629" cy="-18" rx="34.1708" ry="18"/>
<text text-anchor="middle" x="629" y="-14.3" font-family="Times,serif" font-size="14.00">Locale</text>
</g>
<!-- Advertisement -->
<g id="node5" class="node"><title>Advertisement</title>
<ellipse fill="none" stroke="black" cx="354" cy="-254" rx="63.0666" ry="18"/>
<text text-anchor="middle" x="354" y="-250.3" font-family="Times,serif" font-size="14.00">Advertisement</text>
</g>
<!-- Customer -->
<g id="node6" class="node"><title>Customer</title>
<ellipse fill="none" stroke="black" cx="215" cy="-180" rx="45.244" ry="18"/>
<text text-anchor="middle" x="215" y="-176.3" font-family="Times,serif" font-size="14.00">Customer</text>
</g>
<!-- Customer&#45;&gt;DiscountCard -->
<g id="edge4" class="edge"><title>Customer&#45;&gt;DiscountCard</title>
<path fill="none" stroke="#982f1a" d="M242.139,-158.879C259.804,-145.783 282.857,-128.692 301.056,-115.2"/>
<ellipse fill="none" stroke="#982f1a" cx="238.685" cy="-161.441" rx="4.00002" ry="4.00002"/>
<polygon fill="#982f1a" stroke="#982f1a" points="301.522,-114.855 312.235,-112.514 305.538,-111.877 309.555,-108.899 309.555,-108.899 309.555,-108.899 305.538,-111.877 306.875,-105.284 301.522,-114.855 301.522,-114.855"/>
</g>
<!-- Customer&#45;&gt;Coupon -->
<g id="edge5" class="edge"><title>Customer&#45;&gt;Coupon</title>
<path fill="none" stroke="#e06349" d="M215,-153.339C215,-142.855 215,-130.718 215,-120.091"/>
<ellipse fill="none" stroke="#e06349" cx="215" cy="-157.597" rx="4" ry="4"/>
<polygon fill="#e06349" stroke="#e06349" points="215,-120.084 219.5,-110.084 215,-115.084 215,-110.084 215,-110.084 215,-110.084 215,-115.084 210.5,-110.084 215,-120.084 215,-120.084"/>
</g>
<!-- CustomerFeedback -->
<g id="node10" class="node"><title>CustomerFeedback</title>
<ellipse fill="none" stroke="black" cx="79" cy="-92" rx="78.9404" ry="18"/>
<text text-anchor="middle" x="79" y="-88.3" font-family="Times,serif" font-size="14.00">CustomerFeedback</text>
</g>
<!-- Customer&#45;&gt;CustomerFeedback -->
<g id="edge3" class="edge"><title>Customer&#45;&gt;CustomerFeedback</title>
<path fill="none" stroke="#ab6213" d="M185.078,-160.079C163.868,-146.667 135.364,-128.642 113.244,-114.654"/>
<ellipse fill="none" stroke="#ab6213" cx="188.549" cy="-162.273" rx="4.00002" ry="4.00002"/>
<polygon fill="#ab6213" stroke="#ab6213" points="112.953,-114.47 106.906,-105.322 108.727,-111.798 104.501,-109.125 104.501,-109.125 104.501,-109.125 108.727,-111.798 102.096,-112.929 112.953,-114.47 112.953,-114.47"/>
</g>
<!-- AdCampaign -->
<g id="node7" class="node"><title>AdCampaign</title>
<ellipse fill="none" stroke="black" cx="313" cy="-349" rx="57.2688" ry="18"/>
<text text-anchor="middle" x="313" y="-345.3" font-family="Times,serif" font-size="14.00">AdCampaign</text>
</g>
<!-- AdCampaign&#45;&gt;Advertisement -->
<g id="edge6" class="edge"><title>AdCampaign&#45;&gt;Advertisement</title>
<path fill="none" stroke="#7b49a5" d="M323.847,-323.396C329.547,-310.467 336.537,-294.611 342.351,-281.423"/>
<ellipse fill="none" stroke="#7b49a5" cx="322.134" cy="-327.282" rx="4.00002" ry="4.00002"/>
<polygon fill="#7b49a5" stroke="#7b49a5" points="342.494,-281.1 350.645,-273.765 344.511,-276.525 346.528,-271.949 346.528,-271.949 346.528,-271.949 344.511,-276.525 342.41,-270.134 342.494,-281.1 342.494,-281.1"/>
</g>
<!-- RecipientList -->
<g id="node9" class="node"><title>RecipientList</title>
<ellipse fill="none" stroke="black" cx="215" cy="-254" rx="57.2688" ry="18"/>
<text text-anchor="middle" x="215" y="-250.3" font-family="Times,serif" font-size="14.00">RecipientList</text>
</g>
<!-- AdCampaign&#45;&gt;RecipientList -->
<g id="edge7" class="edge"><title>AdCampaign&#45;&gt;RecipientList</title>
<path fill="none" stroke="#3f2786" d="M289.729,-325.917C274.134,-311.117 253.685,-291.711 238.121,-276.941"/>
<ellipse fill="none" stroke="#3f2786" cx="293.028" cy="-329.047" rx="4.00002" ry="4.00002"/>
<ellipse fill="#3f2786" stroke="#3f2786" cx="235.105" cy="-274.079" rx="4.00002" ry="4.00002"/>
</g>
<!-- RecipientList&#45;&gt;Customer -->
<g id="edge8" class="edge"><title>RecipientList&#45;&gt;Customer</title>
<path fill="none" stroke="#74617b" d="M215,-227.792C215,-221.58 215,-214.896 215,-208.579"/>
<ellipse fill="none" stroke="#74617b" cx="215" cy="-231.937" rx="4" ry="4"/>
<polygon fill="#74617b" stroke="#74617b" points="215,-208.441 219.5,-198.441 215,-203.441 215,-198.441 215,-198.441 215,-198.441 215,-203.441 210.5,-198.441 215,-208.441 215,-208.441"/>
</g>
<!-- I18nKey -->
<g id="node11" class="node"><title>I18nKey</title>
<ellipse fill="none" stroke="black" cx="523" cy="-180" rx="41.394" ry="18"/>
<text text-anchor="middle" x="523" y="-176.3" font-family="Times,serif" font-size="14.00">I18nKey</text>
</g>
<!-- ShopType -->
<g id="node13" class="node"><title>ShopType</title>
<ellipse fill="none" stroke="black" cx="456" cy="-92" rx="46.1964" ry="18"/>
<text text-anchor="middle" x="456" y="-88.3" font-family="Times,serif" font-size="14.00">ShopType</text>
</g>
<!-- I18nKey&#45;&gt;ShopType -->
<g id="edge10" class="edge"><title>I18nKey&#45;&gt;ShopType</title>
<path fill="none" stroke="#5afcf1" d="M477.174,-170.166C462.831,-165.011 448.536,-156.864 440,-144 434.629,-135.905 436.326,-125.903 440.209,-116.906"/>
<ellipse fill="none" stroke="#5afcf1" cx="481.306" cy="-171.503" rx="4.00001" ry="4.00001"/>
<ellipse fill="#5afcf1" stroke="#5afcf1" cx="442.073" cy="-113.219" rx="4.00002" ry="4.00002"/>
<text text-anchor="middle" x="470.5" y="-132.3" font-family="Times,serif" font-size="14.00">i18n_name</text>
</g>
<!-- I18nKey&#45;&gt;ShopType -->
<g id="edge11" class="edge"><title>I18nKey&#45;&gt;ShopType</title>
<path fill="none" stroke="#1fd915" d="M515.132,-154.039C511.647,-145.278 506.963,-135.708 501,-128 496.734,-122.486 491.409,-117.357 485.93,-112.818"/>
<ellipse fill="none" stroke="#1fd915" cx="516.609" cy="-158.029" rx="4.00001" ry="4.00001"/>
<ellipse fill="#1fd915" stroke="#1fd915" cx="482.633" cy="-110.238" rx="4.00002" ry="4.00002"/>
<text text-anchor="middle" x="555.5" y="-132.3" font-family="Times,serif" font-size="14.00">i18n_description</text>
</g>
<!-- Translation -->
<g id="node14" class="node"><title>Translation</title>
<ellipse fill="none" stroke="black" cx="629" cy="-92" rx="50.5427" ry="18"/>
<text text-anchor="middle" x="629" y="-88.3" font-family="Times,serif" font-size="14.00">Translation</text>
</g>
<!-- I18nKey&#45;&gt;Translation -->
<g id="edge9" class="edge"><title>I18nKey&#45;&gt;Translation</title>
<path fill="none" stroke="#f0757f" d="M565.724,-167.472C579.541,-162.107 594.094,-154.516 605,-144 611.961,-137.288 617.124,-128.16 620.839,-119.48"/>
<ellipse fill="none" stroke="#f0757f" cx="561.911" cy="-168.86" rx="4.00001" ry="4.00001"/>
<polygon fill="#f0757f" stroke="#f0757f" points="620.881,-119.369 628.644,-111.624 622.66,-114.696 624.439,-110.023 624.439,-110.023 624.439,-110.023 622.66,-114.696 620.233,-108.423 620.881,-119.369 620.881,-119.369"/>
</g>
<!-- BarcodeType -->
<g id="node12" class="node"><title>BarcodeType</title>
<ellipse fill="none" stroke="black" cx="447" cy="-349" rx="57.2688" ry="18"/>
<text text-anchor="middle" x="447" y="-345.3" font-family="Times,serif" font-size="14.00">BarcodeType</text>
</g>
<!-- Translation&#45;&gt;Locale -->
<g id="edge12" class="edge"><title>Translation&#45;&gt;Locale</title>
<path fill="none" stroke="#683143" d="M629,-65.7923C629,-58.9744 629,-51.5875 629,-44.7408"/>
<ellipse fill="none" stroke="#683143" cx="629" cy="-69.937" rx="4" ry="4"/>
<ellipse fill="#683143" stroke="#683143" cx="629" cy="-40.4407" rx="4" ry="4"/>
</g>
<!-- Shop -->
<g id="node15" class="node"><title>Shop</title>
<ellipse fill="none" stroke="black" cx="331" cy="-180" rx="28.3955" ry="18"/>
<text text-anchor="middle" x="331" y="-176.3" font-family="Times,serif" font-size="14.00">Shop</text>
</g>
<!-- Shop&#45;&gt;DiscountCard -->
<g id="edge14" class="edge"><title>Shop&#45;&gt;DiscountCard</title>
<path fill="none" stroke="#7264b5" d="M331,-153.339C331,-142.855 331,-130.718 331,-120.091"/>
<ellipse fill="none" stroke="#7264b5" cx="331" cy="-157.597" rx="4" ry="4"/>
<polygon fill="#7264b5" stroke="#7264b5" points="331,-120.084 335.5,-110.084 331,-115.084 331,-110.084 331,-110.084 331,-110.084 331,-115.084 326.5,-110.084 331,-120.084 331,-120.084"/>
</g>
<!-- Shop&#45;&gt;Coupon -->
<g id="edge15" class="edge"><title>Shop&#45;&gt;Coupon</title>
<path fill="none" stroke="#584f3b" d="M306.534,-160.861C287.895,-147.043 262.219,-128.007 242.803,-113.613"/>
<ellipse fill="none" stroke="#584f3b" cx="309.916" cy="-163.369" rx="4.00002" ry="4.00002"/>
<polygon fill="#584f3b" stroke="#584f3b" points="242.671,-113.515 237.318,-103.944 238.654,-110.537 234.638,-107.559 234.638,-107.559 234.638,-107.559 238.654,-110.537 231.958,-111.174 242.671,-113.515 242.671,-113.515"/>
</g>
<!-- Shop&#45;&gt;ShopType -->
<g id="edge13" class="edge"><title>Shop&#45;&gt;ShopType</title>
<path fill="none" stroke="#ee7ca3" d="M356.171,-161.682C376.782,-147.502 405.94,-127.441 427.425,-112.66"/>
<ellipse fill="none" stroke="#ee7ca3" cx="352.74" cy="-164.043" rx="4.00002" ry="4.00002"/>
<ellipse fill="#ee7ca3" stroke="#ee7ca3" cx="430.815" cy="-110.327" rx="4.00002" ry="4.00002"/>
</g>
</g>
</svg>
