<?xml version="1.0" encoding="UTF-8" standalone="no"?>
<!DOCTYPE svg PUBLIC "-//W3C//DTD SVG 1.1//EN"
 "http://www.w3.org/Graphics/SVG/1.1/DTD/svg11.dtd">
<!-- Generated by graphviz version 2.36.0 (20140111.2315)
 -->
<!-- Title: models_diagram Pages: 1 -->
<svg width="1300pt" height="1130pt"
 viewBox="0.00 0.00 1300.00 1130.00" xmlns="http://www.w3.org/2000/svg" xmlns:xlink="http://www.w3.org/1999/xlink">
<g id="graph0" class="graph" transform="scale(1 1) rotate(0) translate(4 1126)">
<title>models_diagram</title>
<polygon fill="none" stroke="none" points="-4,4 -4,-1126 1296,-1126 1296,4 -4,4"/>
<!-- _diagram_info -->
<g id="node1" class="node"><title>_diagram_info</title>
<text text-anchor="start" x="197" y="-1092.6" font-family="Times,serif" font-size="13.00">Models diagram</text>
<text text-anchor="start" x="197" y="-1078.6" font-family="Times,serif" font-size="13.00">Date: Dec 20 2015 &#45; 22:38</text>
<text text-anchor="start" x="197" y="-1064.6" font-family="Times,serif" font-size="13.00">Migration version: 20151220203133</text>
<text text-anchor="start" x="197" y="-1050.6" font-family="Times,serif" font-size="13.00">Generated by RailRoady 1.4.2</text>
<text text-anchor="start" x="197" y="-1036.6" font-family="Times,serif" font-size="13.00">http://railroady.prestonlee.com</text>
</g>
<!-- DiscountCard -->
<g id="node2" class="node"><title>DiscountCard</title>
<path fill="none" stroke="black" d="M536,-190.5C536,-190.5 756,-190.5 756,-190.5 762,-190.5 768,-196.5 768,-202.5 768,-202.5 768,-329.5 768,-329.5 768,-335.5 762,-341.5 756,-341.5 756,-341.5 536,-341.5 536,-341.5 530,-341.5 524,-335.5 524,-329.5 524,-329.5 524,-202.5 524,-202.5 524,-196.5 530,-190.5 536,-190.5"/>
<text text-anchor="middle" x="646" y="-326.3" font-family="Times,serif" font-size="14.00">DiscountCard</text>
<polyline fill="none" stroke="black" points="524,-318.5 768,-318.5 "/>
<text text-anchor="start" x="532" y="-303.3" font-family="Times,serif" font-size="14.00">id :integer</text>
<text text-anchor="start" x="532" y="-288.3" font-family="Times,serif" font-size="14.00">name :character varying</text>
<text text-anchor="start" x="532" y="-273.3" font-family="Times,serif" font-size="14.00">description :character varying</text>
<text text-anchor="start" x="532" y="-258.3" font-family="Times,serif" font-size="14.00">shop_id :integer</text>
<text text-anchor="start" x="532" y="-243.3" font-family="Times,serif" font-size="14.00">customer_id :integer</text>
<text text-anchor="start" x="532" y="-228.3" font-family="Times,serif" font-size="14.00">created_at :timestamp without time zone</text>
<text text-anchor="start" x="532" y="-213.3" font-family="Times,serif" font-size="14.00">updated_at :timestamp without time zone</text>
<text text-anchor="start" x="532" y="-198.3" font-family="Times,serif" font-size="14.00">unregistered_shop :character varying</text>
</g>
<!-- Barcode -->
<g id="node8" class="node"><title>Barcode</title>
<path fill="none" stroke="black" d="M346,-0.5C346,-0.5 566,-0.5 566,-0.5 572,-0.5 578,-6.5 578,-12.5 578,-12.5 578,-139.5 578,-139.5 578,-145.5 572,-151.5 566,-151.5 566,-151.5 346,-151.5 346,-151.5 340,-151.5 334,-145.5 334,-139.5 334,-139.5 334,-12.5 334,-12.5 334,-6.5 340,-0.5 346,-0.5"/>
<text text-anchor="middle" x="456" y="-136.3" font-family="Times,serif" font-size="14.00">Barcode</text>
<polyline fill="none" stroke="black" points="334,-128.5 578,-128.5 "/>
<text text-anchor="start" x="342" y="-113.3" font-family="Times,serif" font-size="14.00">id :integer</text>
<text text-anchor="start" x="342" y="-98.3" font-family="Times,serif" font-size="14.00">barcode :character varying</text>
<text text-anchor="start" x="342" y="-83.3" font-family="Times,serif" font-size="14.00">discount_percentage :double precision</text>
<text text-anchor="start" x="342" y="-68.3" font-family="Times,serif" font-size="14.00">extra_info :character varying</text>
<text text-anchor="start" x="342" y="-53.3" font-family="Times,serif" font-size="14.00">barcode_type_id :integer</text>
<text text-anchor="start" x="342" y="-38.3" font-family="Times,serif" font-size="14.00">discount_card_id :integer</text>
<text text-anchor="start" x="342" y="-23.3" font-family="Times,serif" font-size="14.00">created_at :timestamp without time zone</text>
<text text-anchor="start" x="342" y="-8.3" font-family="Times,serif" font-size="14.00">updated_at :timestamp without time zone</text>
</g>
<!-- DiscountCard&#45;&gt;Barcode -->
<g id="edge1" class="edge"><title>DiscountCard&#45;&gt;Barcode</title>
<path fill="none" stroke="#d095aa" d="M564.883,-184.737C555.82,-175.769 546.585,-166.631 537.517,-157.659"/>
<ellipse fill="none" stroke="#d095aa" cx="567.791" cy="-187.614" rx="4.00002" ry="4.00002"/>
<ellipse fill="#d095aa" stroke="#d095aa" cx="534.429" cy="-154.603" rx="4.00002" ry="4.00002"/>
</g>
<!-- Coupon -->
<g id="node3" class="node"><title>Coupon</title>
<path fill="none" stroke="black" d="M274,-198C274,-198 494,-198 494,-198 500,-198 506,-204 506,-210 506,-210 506,-322 506,-322 506,-328 500,-334 494,-334 494,-334 274,-334 274,-334 268,-334 262,-328 262,-322 262,-322 262,-210 262,-210 262,-204 268,-198 274,-198"/>
<text text-anchor="middle" x="384" y="-318.8" font-family="Times,serif" font-size="14.00">Coupon</text>
<polyline fill="none" stroke="black" points="262,-311 506,-311 "/>
<text text-anchor="start" x="270" y="-295.8" font-family="Times,serif" font-size="14.00">id :integer</text>
<text text-anchor="start" x="270" y="-280.8" font-family="Times,serif" font-size="14.00">description :text</text>
<text text-anchor="start" x="270" y="-265.8" font-family="Times,serif" font-size="14.00">barcode_id :integer</text>
<text text-anchor="start" x="270" y="-250.8" font-family="Times,serif" font-size="14.00">shop_id :integer</text>
<text text-anchor="start" x="270" y="-235.8" font-family="Times,serif" font-size="14.00">customer_id :integer</text>
<text text-anchor="start" x="270" y="-220.8" font-family="Times,serif" font-size="14.00">created_at :timestamp without time zone</text>
<text text-anchor="start" x="270" y="-205.8" font-family="Times,serif" font-size="14.00">updated_at :timestamp without time zone</text>
</g>
<!-- Coupon&#45;&gt;Barcode -->
<g id="edge2" class="edge"><title>Coupon&#45;&gt;Barcode</title>
<path fill="none" stroke="#171d09" d="M412.676,-190.123C416.534,-180.049 420.51,-169.669 424.415,-159.473"/>
<ellipse fill="none" stroke="#171d09" cx="411.119" cy="-194.188" rx="4.00001" ry="4.00001"/>
<ellipse fill="#171d09" stroke="#171d09" cx="425.953" cy="-155.455" rx="4.00001" ry="4.00001"/>
</g>
<!-- Locale -->
<g id="node4" class="node"><title>Locale</title>
<path fill="none" stroke="black" d="M1060,-23C1060,-23 1280,-23 1280,-23 1286,-23 1292,-29 1292,-35 1292,-35 1292,-117 1292,-117 1292,-123 1286,-129 1280,-129 1280,-129 1060,-129 1060,-129 1054,-129 1048,-123 1048,-117 1048,-117 1048,-35 1048,-35 1048,-29 1054,-23 1060,-23"/>
<text text-anchor="middle" x="1170" y="-113.8" font-family="Times,serif" font-size="14.00">Locale</text>
<polyline fill="none" stroke="black" points="1048,-106 1292,-106 "/>
<text text-anchor="start" x="1056" y="-90.8" font-family="Times,serif" font-size="14.00">id :integer</text>
<text text-anchor="start" x="1056" y="-75.8" font-family="Times,serif" font-size="14.00">name :character varying</text>
<text text-anchor="start" x="1056" y="-60.8" font-family="Times,serif" font-size="14.00">code :character varying</text>
<text text-anchor="start" x="1056" y="-45.8" font-family="Times,serif" font-size="14.00">created_at :timestamp without time zone</text>
<text text-anchor="start" x="1056" y="-30.8" font-family="Times,serif" font-size="14.00">updated_at :timestamp without time zone</text>
</g>
<!-- Advertisement -->
<g id="node5" class="node"><title>Advertisement</title>
<path fill="none" stroke="black" d="M504,-854.5C504,-854.5 724,-854.5 724,-854.5 730,-854.5 736,-860.5 736,-866.5 736,-866.5 736,-963.5 736,-963.5 736,-969.5 730,-975.5 724,-975.5 724,-975.5 504,-975.5 504,-975.5 498,-975.5 492,-969.5 492,-963.5 492,-963.5 492,-866.5 492,-866.5 492,-860.5 498,-854.5 504,-854.5"/>
<text text-anchor="middle" x="614" y="-960.3" font-family="Times,serif" font-size="14.00">Advertisement</text>
<polyline fill="none" stroke="black" points="492,-952.5 736,-952.5 "/>
<text text-anchor="start" x="500" y="-937.3" font-family="Times,serif" font-size="14.00">id :integer</text>
<text text-anchor="start" x="500" y="-922.3" font-family="Times,serif" font-size="14.00">name :character varying</text>
<text text-anchor="start" x="500" y="-907.3" font-family="Times,serif" font-size="14.00">ad_data :json</text>
<text text-anchor="start" x="500" y="-892.3" font-family="Times,serif" font-size="14.00">ad_campaign_id :integer</text>
<text text-anchor="start" x="500" y="-877.3" font-family="Times,serif" font-size="14.00">created_at :timestamp without time zone</text>
<text text-anchor="start" x="500" y="-862.3" font-family="Times,serif" font-size="14.00">updated_at :timestamp without time zone</text>
</g>
<!-- Customer -->
<g id="node6" class="node"><title>Customer</title>
<path fill="none" stroke="black" d="M207.5,-424.5C207.5,-424.5 496.5,-424.5 496.5,-424.5 502.5,-424.5 508.5,-430.5 508.5,-436.5 508.5,-436.5 508.5,-773.5 508.5,-773.5 508.5,-779.5 502.5,-785.5 496.5,-785.5 496.5,-785.5 207.5,-785.5 207.5,-785.5 201.5,-785.5 195.5,-779.5 195.5,-773.5 195.5,-773.5 195.5,-436.5 195.5,-436.5 195.5,-430.5 201.5,-424.5 207.5,-424.5"/>
<text text-anchor="middle" x="352" y="-770.3" font-family="Times,serif" font-size="14.00">Customer</text>
<polyline fill="none" stroke="black" points="195.5,-762.5 508.5,-762.5 "/>
<text text-anchor="start" x="203.5" y="-747.3" font-family="Times,serif" font-size="14.00">id :integer</text>
<text text-anchor="start" x="203.5" y="-732.3" font-family="Times,serif" font-size="14.00">first_name :character varying</text>
<text text-anchor="start" x="203.5" y="-717.3" font-family="Times,serif" font-size="14.00">last_name :character varying</text>
<text text-anchor="start" x="203.5" y="-702.3" font-family="Times,serif" font-size="14.00">email :character varying</text>
<text text-anchor="start" x="203.5" y="-687.3" font-family="Times,serif" font-size="14.00">phone_number :character varying</text>
<text text-anchor="start" x="203.5" y="-672.3" font-family="Times,serif" font-size="14.00">city :character varying</text>
<text text-anchor="start" x="203.5" y="-657.3" font-family="Times,serif" font-size="14.00">country :character varying</text>
<text text-anchor="start" x="203.5" y="-642.3" font-family="Times,serif" font-size="14.00">created_at :timestamp without time zone</text>
<text text-anchor="start" x="203.5" y="-627.3" font-family="Times,serif" font-size="14.00">updated_at :timestamp without time zone</text>
<text text-anchor="start" x="203.5" y="-612.3" font-family="Times,serif" font-size="14.00">encrypted_password :character varying</text>
<text text-anchor="start" x="203.5" y="-597.3" font-family="Times,serif" font-size="14.00">reset_password_token :character varying</text>
<text text-anchor="start" x="203.5" y="-582.3" font-family="Times,serif" font-size="14.00">reset_password_sent_at :timestamp without time zone</text>
<text text-anchor="start" x="203.5" y="-567.3" font-family="Times,serif" font-size="14.00">remember_created_at :timestamp without time zone</text>
<text text-anchor="start" x="203.5" y="-552.3" font-family="Times,serif" font-size="14.00">sign_in_count :integer</text>
<text text-anchor="start" x="203.5" y="-537.3" font-family="Times,serif" font-size="14.00">current_sign_in_at :timestamp without time zone</text>
<text text-anchor="start" x="203.5" y="-522.3" font-family="Times,serif" font-size="14.00">last_sign_in_at :timestamp without time zone</text>
<text text-anchor="start" x="203.5" y="-507.3" font-family="Times,serif" font-size="14.00">current_sign_in_ip :inet</text>
<text text-anchor="start" x="203.5" y="-492.3" font-family="Times,serif" font-size="14.00">last_sign_in_ip :inet</text>
<text text-anchor="start" x="203.5" y="-477.3" font-family="Times,serif" font-size="14.00">confirmation_token :character varying</text>
<text text-anchor="start" x="203.5" y="-462.3" font-family="Times,serif" font-size="14.00">confirmed_at :timestamp without time zone</text>
<text text-anchor="start" x="203.5" y="-447.3" font-family="Times,serif" font-size="14.00">confirmation_sent_at :timestamp without time zone</text>
<text text-anchor="start" x="203.5" y="-432.3" font-family="Times,serif" font-size="14.00">unconfirmed_email :character varying</text>
</g>
<!-- Customer&#45;&gt;DiscountCard -->
<g id="edge4" class="edge"><title>Customer&#45;&gt;DiscountCard</title>
<path fill="none" stroke="#b416df" d="M496.034,-418.004C503.033,-409.817 510.043,-401.781 517,-394 530.412,-379.001 545.184,-363.56 559.797,-348.838"/>
<ellipse fill="none" stroke="#b416df" cx="493.277" cy="-421.245" rx="4.00002" ry="4.00002"/>
<polygon fill="#b416df" stroke="#b416df" points="559.885,-348.75 570.135,-344.853 563.418,-345.211 566.951,-341.673 566.951,-341.673 566.951,-341.673 563.418,-345.211 563.767,-338.494 559.885,-348.75 559.885,-348.75"/>
</g>
<!-- Customer&#45;&gt;Coupon -->
<g id="edge5" class="edge"><title>Customer&#45;&gt;Coupon</title>
<path fill="none" stroke="#64b1b4" d="M369.863,-415.88C372.262,-390.611 374.605,-365.939 376.672,-344.178"/>
<ellipse fill="none" stroke="#64b1b4" cx="369.456" cy="-420.172" rx="4" ry="4"/>
<polygon fill="#64b1b4" stroke="#64b1b4" points="376.686,-344.023 382.111,-334.493 377.159,-339.045 377.632,-334.068 377.632,-334.068 377.632,-334.068 377.159,-339.045 373.152,-333.642 376.686,-344.023 376.686,-344.023"/>
</g>
<!-- CustomerFeedback -->
<g id="node10" class="node"><title>CustomerFeedback</title>
<path fill="none" stroke="black" d="M12,-205.5C12,-205.5 232,-205.5 232,-205.5 238,-205.5 244,-211.5 244,-217.5 244,-217.5 244,-314.5 244,-314.5 244,-320.5 238,-326.5 232,-326.5 232,-326.5 12,-326.5 12,-326.5 6,-326.5 0,-320.5 0,-314.5 0,-314.5 0,-217.5 0,-217.5 0,-211.5 6,-205.5 12,-205.5"/>
<text text-anchor="middle" x="122" y="-311.3" font-family="Times,serif" font-size="14.00">CustomerFeedback</text>
<polyline fill="none" stroke="black" points="0,-303.5 244,-303.5 "/>
<text text-anchor="start" x="8" y="-288.3" font-family="Times,serif" font-size="14.00">id :integer</text>
<text text-anchor="start" x="8" y="-273.3" font-family="Times,serif" font-size="14.00">feedback :text</text>
<text text-anchor="start" x="8" y="-258.3" font-family="Times,serif" font-size="14.00">rating :integer</text>
<text text-anchor="start" x="8" y="-243.3" font-family="Times,serif" font-size="14.00">customer_id :integer</text>
<text text-anchor="start" x="8" y="-228.3" font-family="Times,serif" font-size="14.00">created_at :timestamp without time zone</text>
<text text-anchor="start" x="8" y="-213.3" font-family="Times,serif" font-size="14.00">updated_at :timestamp without time zone</text>
</g>
<!-- Customer&#45;&gt;CustomerFeedback -->
<g id="edge3" class="edge"><title>Customer&#45;&gt;CustomerFeedback</title>
<path fill="none" stroke="#dc5501" d="M224.465,-417.134C204.418,-387.76 184.884,-359.139 168.341,-334.9"/>
<ellipse fill="none" stroke="#dc5501" cx="227.001" cy="-420.85" rx="4.00002" ry="4.00002"/>
<polygon fill="#dc5501" stroke="#dc5501" points="168.256,-334.774 166.335,-323.978 165.437,-330.645 162.618,-326.515 162.618,-326.515 162.618,-326.515 165.437,-330.645 158.901,-329.051 168.256,-334.774 168.256,-334.774"/>
</g>
<!-- AdCampaign -->
<g id="node7" class="node"><title>AdCampaign</title>
<path fill="none" stroke="black" d="M433,-1015C433,-1015 653,-1015 653,-1015 659,-1015 665,-1021 665,-1027 665,-1027 665,-1109 665,-1109 665,-1115 659,-1121 653,-1121 653,-1121 433,-1121 433,-1121 427,-1121 421,-1115 421,-1109 421,-1109 421,-1027 421,-1027 421,-1021 427,-1015 433,-1015"/>
<text text-anchor="middle" x="543" y="-1105.8" font-family="Times,serif" font-size="14.00">AdCampaign</text>
<polyline fill="none" stroke="black" points="421,-1098 665,-1098 "/>
<text text-anchor="start" x="429" y="-1082.8" font-family="Times,serif" font-size="14.00">id :integer</text>
<text text-anchor="start" x="429" y="-1067.8" font-family="Times,serif" font-size="14.00">description :text</text>
<text text-anchor="start" x="429" y="-1052.8" font-family="Times,serif" font-size="14.00">shop_id :integer</text>
<text text-anchor="start" x="429" y="-1037.8" font-family="Times,serif" font-size="14.00">created_at :timestamp without time zone</text>
<text text-anchor="start" x="429" y="-1022.8" font-family="Times,serif" font-size="14.00">updated_at :timestamp without time zone</text>
</g>
<!-- AdCampaign&#45;&gt;Advertisement -->
<g id="edge6" class="edge"><title>AdCampaign&#45;&gt;Advertisement</title>
<path fill="none" stroke="#c3acba" d="M571.152,-1007.13C574.588,-999.819 578.121,-992.306 581.613,-984.88"/>
<ellipse fill="none" stroke="#c3acba" cx="569.335" cy="-1010.99" rx="4.00002" ry="4.00002"/>
<polygon fill="#c3acba" stroke="#c3acba" points="581.749,-984.59 590.077,-977.455 583.877,-980.065 586.004,-975.54 586.004,-975.54 586.004,-975.54 583.877,-980.065 581.932,-973.626 581.749,-984.59 581.749,-984.59"/>
</g>
<!-- RecipientList -->
<g id="node9" class="node"><title>RecipientList</title>
<path fill="none" stroke="black" d="M242,-862C242,-862 462,-862 462,-862 468,-862 474,-868 474,-874 474,-874 474,-956 474,-956 474,-962 468,-968 462,-968 462,-968 242,-968 242,-968 236,-968 230,-962 230,-956 230,-956 230,-874 230,-874 230,-868 236,-862 242,-862"/>
<text text-anchor="middle" x="352" y="-952.8" font-family="Times,serif" font-size="14.00">RecipientList</text>
<polyline fill="none" stroke="black" points="230,-945 474,-945 "/>
<text text-anchor="start" x="238" y="-929.8" font-family="Times,serif" font-size="14.00">id :integer</text>
<text text-anchor="start" x="238" y="-914.8" font-family="Times,serif" font-size="14.00">ad_campaign_id :integer</text>
<text text-anchor="start" x="238" y="-899.8" font-family="Times,serif" font-size="14.00">customer_id :integer</text>
<text text-anchor="start" x="238" y="-884.8" font-family="Times,serif" font-size="14.00">created_at :timestamp without time zone</text>
<text text-anchor="start" x="238" y="-869.8" font-family="Times,serif" font-size="14.00">updated_at :timestamp without time zone</text>
</g>
<!-- AdCampaign&#45;&gt;RecipientList -->
<g id="edge7" class="edge"><title>AdCampaign&#45;&gt;RecipientList</title>
<path fill="none" stroke="#5845f1" d="M470.681,-1009.83C455.543,-997.858 439.578,-985.237 424.436,-973.266"/>
<ellipse fill="none" stroke="#5845f1" cx="473.863" cy="-1012.34" rx="4.00002" ry="4.00002"/>
<ellipse fill="#5845f1" stroke="#5845f1" cx="421.139" cy="-970.66" rx="4.00002" ry="4.00002"/>
</g>
<!-- RecipientList&#45;&gt;Customer -->
<g id="edge8" class="edge"><title>RecipientList&#45;&gt;Customer</title>
<path fill="none" stroke="#486b36" d="M352,-853.657C352,-836.406 352,-816.628 352,-795.932"/>
<ellipse fill="none" stroke="#486b36" cx="352" cy="-857.752" rx="4" ry="4"/>
<polygon fill="#486b36" stroke="#486b36" points="352,-795.706 356.5,-785.706 352,-790.706 352,-785.706 352,-785.706 352,-785.706 352,-790.706 347.5,-785.706 352,-795.706 352,-795.706"/>
</g>
<!-- I18nKey -->
<g id="node11" class="node"><title>I18nKey</title>
<path fill="none" stroke="black" d="M882,-559.5C882,-559.5 1102,-559.5 1102,-559.5 1108,-559.5 1114,-565.5 1114,-571.5 1114,-571.5 1114,-638.5 1114,-638.5 1114,-644.5 1108,-650.5 1102,-650.5 1102,-650.5 882,-650.5 882,-650.5 876,-650.5 870,-644.5 870,-638.5 870,-638.5 870,-571.5 870,-571.5 870,-565.5 876,-559.5 882,-559.5"/>
<text text-anchor="middle" x="992" y="-635.3" font-family="Times,serif" font-size="14.00">I18nKey</text>
<polyline fill="none" stroke="black" points="870,-627.5 1114,-627.5 "/>
<text text-anchor="start" x="878" y="-612.3" font-family="Times,serif" font-size="14.00">id :integer</text>
<text text-anchor="start" x="878" y="-597.3" font-family="Times,serif" font-size="14.00">key_name :character varying</text>
<text text-anchor="start" x="878" y="-582.3" font-family="Times,serif" font-size="14.00">created_at :timestamp without time zone</text>
<text text-anchor="start" x="878" y="-567.3" font-family="Times,serif" font-size="14.00">updated_at :timestamp without time zone</text>
</g>
<!-- ShopType -->
<g id="node13" class="node"><title>ShopType</title>
<path fill="none" stroke="black" d="M798,-205.5C798,-205.5 1018,-205.5 1018,-205.5 1024,-205.5 1030,-211.5 1030,-217.5 1030,-217.5 1030,-314.5 1030,-314.5 1030,-320.5 1024,-326.5 1018,-326.5 1018,-326.5 798,-326.5 798,-326.5 792,-326.5 786,-320.5 786,-314.5 786,-314.5 786,-217.5 786,-217.5 786,-211.5 792,-205.5 798,-205.5"/>
<text text-anchor="middle" x="908" y="-311.3" font-family="Times,serif" font-size="14.00">ShopType</text>
<polyline fill="none" stroke="black" points="786,-303.5 1030,-303.5 "/>
<text text-anchor="start" x="794" y="-288.3" font-family="Times,serif" font-size="14.00">id :integer</text>
<text text-anchor="start" x="794" y="-273.3" font-family="Times,serif" font-size="14.00">created_at :timestamp without time zone</text>
<text text-anchor="start" x="794" y="-258.3" font-family="Times,serif" font-size="14.00">updated_at :timestamp without time zone</text>
<text text-anchor="start" x="794" y="-243.3" font-family="Times,serif" font-size="14.00">i18n_name_id :integer</text>
<text text-anchor="start" x="794" y="-228.3" font-family="Times,serif" font-size="14.00">i18n_description_id :integer</text>
<text text-anchor="start" x="794" y="-213.3" font-family="Times,serif" font-size="14.00">shop_id :integer</text>
</g>
<!-- I18nKey&#45;&gt;ShopType -->
<g id="edge10" class="edge"><title>I18nKey&#45;&gt;ShopType</title>
<path fill="none" stroke="#f89cb5" d="M967.321,-552.064C947.206,-506.748 920.341,-438.627 909,-376 906.604,-362.769 905.461,-348.485 905.06,-334.752"/>
<ellipse fill="none" stroke="#f89cb5" cx="968.979" cy="-555.765" rx="4.00002" ry="4.00002"/>
<ellipse fill="#f89cb5" stroke="#f89cb5" cx="904.983" cy="-330.742" rx="4" ry="4"/>
<text text-anchor="middle" x="939.5" y="-364.3" font-family="Times,serif" font-size="14.00">i18n_name</text>
</g>
<!-- I18nKey&#45;&gt;ShopType -->
<g id="edge11" class="edge"><title>I18nKey&#45;&gt;ShopType</title>
<path fill="none" stroke="#6f28b9" d="M994.632,-551.244C995.458,-500.724 992.239,-423.076 970,-360 966.875,-351.136 962.712,-342.296 958.018,-333.79"/>
<ellipse fill="none" stroke="#6f28b9" cx="994.544" cy="-555.423" rx="4" ry="4"/>
<ellipse fill="#6f28b9" stroke="#6f28b9" cx="955.953" cy="-330.197" rx="4.00002" ry="4.00002"/>
<text text-anchor="middle" x="1019.5" y="-364.3" font-family="Times,serif" font-size="14.00">i18n_description</text>
</g>
<!-- Translation -->
<g id="node14" class="node"><title>Translation</title>
<path fill="none" stroke="black" d="M1060,-205.5C1060,-205.5 1280,-205.5 1280,-205.5 1286,-205.5 1292,-211.5 1292,-217.5 1292,-217.5 1292,-314.5 1292,-314.5 1292,-320.5 1286,-326.5 1280,-326.5 1280,-326.5 1060,-326.5 1060,-326.5 1054,-326.5 1048,-320.5 1048,-314.5 1048,-314.5 1048,-217.5 1048,-217.5 1048,-211.5 1054,-205.5 1060,-205.5"/>
<text text-anchor="middle" x="1170" y="-311.3" font-family="Times,serif" font-size="14.00">Translation</text>
<polyline fill="none" stroke="black" points="1048,-303.5 1292,-303.5 "/>
<text text-anchor="start" x="1056" y="-288.3" font-family="Times,serif" font-size="14.00">id :integer</text>
<text text-anchor="start" x="1056" y="-273.3" font-family="Times,serif" font-size="14.00">translation :character varying</text>
<text text-anchor="start" x="1056" y="-258.3" font-family="Times,serif" font-size="14.00">i18n_key_id :integer</text>
<text text-anchor="start" x="1056" y="-243.3" font-family="Times,serif" font-size="14.00">locale_id :integer</text>
<text text-anchor="start" x="1056" y="-228.3" font-family="Times,serif" font-size="14.00">created_at :timestamp without time zone</text>
<text text-anchor="start" x="1056" y="-213.3" font-family="Times,serif" font-size="14.00">updated_at :timestamp without time zone</text>
</g>
<!-- I18nKey&#45;&gt;Translation -->
<g id="edge9" class="edge"><title>I18nKey&#45;&gt;Translation</title>
<path fill="none" stroke="#9a3979" d="M1019.45,-552.034C1050.07,-494.067 1099.73,-400.037 1133.58,-335.954"/>
<ellipse fill="none" stroke="#9a3979" cx="1017.51" cy="-555.712" rx="4.00002" ry="4.00002"/>
<polygon fill="#9a3979" stroke="#9a3979" points="1133.78,-335.567 1142.43,-328.826 1136.12,-331.145 1138.45,-326.724 1138.45,-326.724 1138.45,-326.724 1136.12,-331.145 1134.48,-324.622 1133.78,-335.567 1133.78,-335.567"/>
</g>
<!-- BarcodeType -->
<g id="node12" class="node"><title>BarcodeType</title>
<path fill="none" stroke="black" d="M695,-1015C695,-1015 915,-1015 915,-1015 921,-1015 927,-1021 927,-1027 927,-1027 927,-1109 927,-1109 927,-1115 921,-1121 915,-1121 915,-1121 695,-1121 695,-1121 689,-1121 683,-1115 683,-1109 683,-1109 683,-1027 683,-1027 683,-1021 689,-1015 695,-1015"/>
<text text-anchor="middle" x="805" y="-1105.8" font-family="Times,serif" font-size="14.00">BarcodeType</text>
<polyline fill="none" stroke="black" points="683,-1098 927,-1098 "/>
<text text-anchor="start" x="691" y="-1082.8" font-family="Times,serif" font-size="14.00">id :integer</text>
<text text-anchor="start" x="691" y="-1067.8" font-family="Times,serif" font-size="14.00">barcode_type :character varying</text>
<text text-anchor="start" x="691" y="-1052.8" font-family="Times,serif" font-size="14.00">created_at :timestamp without time zone</text>
<text text-anchor="start" x="691" y="-1037.8" font-family="Times,serif" font-size="14.00">updated_at :timestamp without time zone</text>
<text text-anchor="start" x="691" y="-1022.8" font-family="Times,serif" font-size="14.00">barcode_id :integer</text>
</g>
<!-- Translation&#45;&gt;Locale -->
<g id="edge12" class="edge"><title>Translation&#45;&gt;Locale</title>
<path fill="none" stroke="#1bb2f6" d="M1170,-197.131C1170,-177.577 1170,-156.384 1170,-137.321"/>
<ellipse fill="none" stroke="#1bb2f6" cx="1170" cy="-201.257" rx="4" ry="4"/>
<ellipse fill="#1bb2f6" stroke="#1bb2f6" cx="1170" cy="-133.292" rx="4" ry="4"/>
</g>
<!-- Shop -->
<g id="node15" class="node"><title>Shop</title>
<path fill="none" stroke="black" d="M538.5,-394.5C538.5,-394.5 827.5,-394.5 827.5,-394.5 833.5,-394.5 839.5,-400.5 839.5,-406.5 839.5,-406.5 839.5,-803.5 839.5,-803.5 839.5,-809.5 833.5,-815.5 827.5,-815.5 827.5,-815.5 538.5,-815.5 538.5,-815.5 532.5,-815.5 526.5,-809.5 526.5,-803.5 526.5,-803.5 526.5,-406.5 526.5,-406.5 526.5,-400.5 532.5,-394.5 538.5,-394.5"/>
<text text-anchor="middle" x="683" y="-800.3" font-family="Times,serif" font-size="14.00">Shop</text>
<polyline fill="none" stroke="black" points="526.5,-792.5 839.5,-792.5 "/>
<text text-anchor="start" x="534.5" y="-777.3" font-family="Times,serif" font-size="14.00">id :integer</text>
<text text-anchor="start" x="534.5" y="-762.3" font-family="Times,serif" font-size="14.00">name :character varying</text>
<text text-anchor="start" x="534.5" y="-747.3" font-family="Times,serif" font-size="14.00">description :text</text>
<text text-anchor="start" x="534.5" y="-732.3" font-family="Times,serif" font-size="14.00">chain_store :character varying</text>
<text text-anchor="start" x="534.5" y="-717.3" font-family="Times,serif" font-size="14.00">address :text</text>
<text text-anchor="start" x="534.5" y="-702.3" font-family="Times,serif" font-size="14.00">city :character varying</text>
<text text-anchor="start" x="534.5" y="-687.3" font-family="Times,serif" font-size="14.00">country :character varying</text>
<text text-anchor="start" x="534.5" y="-672.3" font-family="Times,serif" font-size="14.00">created_at :timestamp without time zone</text>
<text text-anchor="start" x="534.5" y="-657.3" font-family="Times,serif" font-size="14.00">updated_at :timestamp without time zone</text>
<text text-anchor="start" x="534.5" y="-642.3" font-family="Times,serif" font-size="14.00">email :character varying</text>
<text text-anchor="start" x="534.5" y="-627.3" font-family="Times,serif" font-size="14.00">encrypted_password :character varying</text>
<text text-anchor="start" x="534.5" y="-612.3" font-family="Times,serif" font-size="14.00">reset_password_token :character varying</text>
<text text-anchor="start" x="534.5" y="-597.3" font-family="Times,serif" font-size="14.00">reset_password_sent_at :timestamp without time zone</text>
<text text-anchor="start" x="534.5" y="-582.3" font-family="Times,serif" font-size="14.00">remember_created_at :timestamp without time zone</text>
<text text-anchor="start" x="534.5" y="-567.3" font-family="Times,serif" font-size="14.00">sign_in_count :integer</text>
<text text-anchor="start" x="534.5" y="-552.3" font-family="Times,serif" font-size="14.00">current_sign_in_at :timestamp without time zone</text>
<text text-anchor="start" x="534.5" y="-537.3" font-family="Times,serif" font-size="14.00">last_sign_in_at :timestamp without time zone</text>
<text text-anchor="start" x="534.5" y="-522.3" font-family="Times,serif" font-size="14.00">current_sign_in_ip :inet</text>
<text text-anchor="start" x="534.5" y="-507.3" font-family="Times,serif" font-size="14.00">last_sign_in_ip :inet</text>
<text text-anchor="start" x="534.5" y="-492.3" font-family="Times,serif" font-size="14.00">confirmation_token :character varying</text>
<text text-anchor="start" x="534.5" y="-477.3" font-family="Times,serif" font-size="14.00">confirmed_at :timestamp without time zone</text>
<text text-anchor="start" x="534.5" y="-462.3" font-family="Times,serif" font-size="14.00">confirmation_sent_at :timestamp without time zone</text>
<text text-anchor="start" x="534.5" y="-447.3" font-family="Times,serif" font-size="14.00">unconfirmed_email :character varying</text>
<text text-anchor="start" x="534.5" y="-432.3" font-family="Times,serif" font-size="14.00">failed_attempts :integer</text>
<text text-anchor="start" x="534.5" y="-417.3" font-family="Times,serif" font-size="14.00">unlock_token :character varying</text>
<text text-anchor="start" x="534.5" y="-402.3" font-family="Times,serif" font-size="14.00">locked_at :timestamp without time zone</text>
</g>
<!-- Shop&#45;&gt;DiscountCard -->
<g id="edge14" class="edge"><title>Shop&#45;&gt;DiscountCard</title>
<path fill="none" stroke="#d5b45a" d="M659.084,-386.17C657.782,-374.314 656.52,-362.815 655.326,-351.939"/>
<ellipse fill="none" stroke="#d5b45a" cx="659.552" cy="-390.429" rx="4" ry="4"/>
<polygon fill="#d5b45a" stroke="#d5b45a" points="655.294,-351.65 658.676,-341.218 654.748,-346.68 654.203,-341.71 654.203,-341.71 654.203,-341.71 654.748,-346.68 649.729,-342.201 655.294,-351.65 655.294,-351.65"/>
</g>
<!-- Shop&#45;&gt;Coupon -->
<g id="edge15" class="edge"><title>Shop&#45;&gt;Coupon</title>
<path fill="none" stroke="#5c182e" d="M520.818,-398.213C519.544,-396.8 518.271,-395.396 517,-394 500.918,-376.341 482.877,-358.157 465.395,-341.263"/>
<ellipse fill="none" stroke="#5c182e" cx="523.74" cy="-401.475" rx="4.00002" ry="4.00002"/>
<polygon fill="#5c182e" stroke="#5c182e" points="465.157,-341.034 461.062,-330.861 461.551,-337.57 457.945,-334.107 457.945,-334.107 457.945,-334.107 461.551,-337.57 454.827,-337.352 465.157,-341.034 465.157,-341.034"/>
</g>
<!-- Shop&#45;&gt;ShopType -->
<g id="edge13" class="edge"><title>Shop&#45;&gt;ShopType</title>
<path fill="none" stroke="#6af318" d="M827.539,-387.513C840.443,-368.185 852.735,-349.775 863.652,-333.424"/>
<ellipse fill="none" stroke="#6af318" cx="825.158" cy="-391.079" rx="4.00002" ry="4.00002"/>
<ellipse fill="#6af318" stroke="#6af318" cx="866.023" cy="-329.872" rx="4.00002" ry="4.00002"/>
</g>
</g>
</svg>
