<?xml version="1.0" encoding="UTF-8" standalone="no"?>
<!DOCTYPE svg PUBLIC "-//W3C//DTD SVG 1.1//EN"
 "http://www.w3.org/Graphics/SVG/1.1/DTD/svg11.dtd">
<!-- Generated by graphviz version 2.36.0 (20140111.2315)
 -->
<!-- Title: models_diagram Pages: 1 -->
<svg width="687pt" height="470pt"
 viewBox="0.00 0.00 687.00 470.00" xmlns="http://www.w3.org/2000/svg" xmlns:xlink="http://www.w3.org/1999/xlink">
<g id="graph0" class="graph" transform="scale(1 1) rotate(0) translate(4 466)">
<title>models_diagram</title>
<polygon fill="none" stroke="none" points="-4,4 -4,-466 683,-466 683,4 -4,4"/>
<!-- _diagram_info -->
<g id="node1" class="node"><title>_diagram_info</title>
<text text-anchor="start" x="31" y="-447.6" font-family="Times,serif" font-size="13.00">Models diagram</text>
<text text-anchor="start" x="31" y="-433.6" font-family="Times,serif" font-size="13.00">Date: Dec 07 2015 &#45; 23:34</text>
<text text-anchor="start" x="31" y="-419.6" font-family="Times,serif" font-size="13.00">Migration version: 20151207211752</text>
<text text-anchor="start" x="31" y="-405.6" font-family="Times,serif" font-size="13.00">Generated by RailRoady 1.4.1</text>
<text text-anchor="start" x="31" y="-391.6" font-family="Times,serif" font-size="13.00">http://railroady.prestonlee.com</text>
</g>
<!-- DiscountCard -->
<g id="node2" class="node"><title>DiscountCard</title>
<ellipse fill="none" stroke="black" cx="331" cy="-166" rx="59.1941" ry="18"/>
<text text-anchor="middle" x="331" y="-162.3" font-family="Times,serif" font-size="14.00">DiscountCard</text>
</g>
<!-- Barcode -->
<g id="node8" class="node"><title>Barcode</title>
<ellipse fill="none" stroke="black" cx="251" cy="-92" rx="39.9464" ry="18"/>
<text text-anchor="middle" x="251" y="-88.3" font-family="Times,serif" font-size="14.00">Barcode</text>
</g>
<!-- DiscountCard&#45;&gt;Barcode -->
<g id="edge1" class="edge"><title>DiscountCard&#45;&gt;Barcode</title>
<path fill="none" stroke="#0c22d4" d="M306.614,-143.053C296.352,-133.817 284.464,-123.118 274.32,-113.988"/>
<ellipse fill="none" stroke="#0c22d4" cx="309.874" cy="-145.986" rx="4.00002" ry="4.00002"/>
<ellipse fill="#0c22d4" stroke="#0c22d4" cx="271.232" cy="-111.209" rx="4.00002" ry="4.00002"/>
</g>
<!-- Coupon -->
<g id="node3" class="node"><title>Coupon</title>
<ellipse fill="none" stroke="black" cx="215" cy="-166" rx="38.0212" ry="18"/>
<text text-anchor="middle" x="215" y="-162.3" font-family="Times,serif" font-size="14.00">Coupon</text>
</g>
<!-- Coupon&#45;&gt;Barcode -->
<g id="edge2" class="edge"><title>Coupon&#45;&gt;Barcode</title>
<path fill="none" stroke="#074bab" d="M227.042,-140.916C230.828,-133.344 235.01,-124.979 238.807,-117.386"/>
<ellipse fill="none" stroke="#074bab" cx="225.138" cy="-144.723" rx="4.00002" ry="4.00002"/>
<ellipse fill="#074bab" stroke="#074bab" cx="240.657" cy="-113.686" rx="4.00002" ry="4.00002"/>
</g>
<!-- Locale -->
<g id="node4" class="node"><title>Locale</title>
<ellipse fill="none" stroke="black" cx="629" cy="-92" rx="34.1708" ry="18"/>
<text text-anchor="middle" x="629" y="-88.3" font-family="Times,serif" font-size="14.00">Locale</text>
</g>
<!-- Advertisement -->
<g id="node5" class="node"><title>Advertisement</title>
<ellipse fill="none" stroke="black" cx="354" cy="-328" rx="63.0666" ry="18"/>
<text text-anchor="middle" x="354" y="-324.3" font-family="Times,serif" font-size="14.00">Advertisement</text>
</g>
<!-- Customer -->
<g id="node6" class="node"><title>Customer</title>
<ellipse fill="none" stroke="black" cx="215" cy="-254" rx="45.244" ry="18"/>
<text text-anchor="middle" x="215" y="-250.3" font-family="Times,serif" font-size="14.00">Customer</text>
</g>
<!-- Customer&#45;&gt;DiscountCard -->
<g id="edge4" class="edge"><title>Customer&#45;&gt;DiscountCard</title>
<path fill="none" stroke="#ad096d" d="M242.139,-232.879C259.804,-219.783 282.857,-202.692 301.056,-189.2"/>
<ellipse fill="none" stroke="#ad096d" cx="238.685" cy="-235.441" rx="4.00002" ry="4.00002"/>
<polygon fill="#ad096d" stroke="#ad096d" points="301.522,-188.855 312.235,-186.514 305.538,-185.877 309.555,-182.899 309.555,-182.899 309.555,-182.899 305.538,-185.877 306.875,-179.284 301.522,-188.855 301.522,-188.855"/>
</g>
<!-- Customer&#45;&gt;Coupon -->
<g id="edge5" class="edge"><title>Customer&#45;&gt;Coupon</title>
<path fill="none" stroke="#1925b7" d="M215,-227.339C215,-216.855 215,-204.718 215,-194.091"/>
<ellipse fill="none" stroke="#1925b7" cx="215" cy="-231.597" rx="4" ry="4"/>
<polygon fill="#1925b7" stroke="#1925b7" points="215,-194.084 219.5,-184.084 215,-189.084 215,-184.084 215,-184.084 215,-184.084 215,-189.084 210.5,-184.084 215,-194.084 215,-194.084"/>
</g>
<!-- CustomerFeedback -->
<g id="node10" class="node"><title>CustomerFeedback</title>
<ellipse fill="none" stroke="black" cx="79" cy="-166" rx="78.9404" ry="18"/>
<text text-anchor="middle" x="79" y="-162.3" font-family="Times,serif" font-size="14.00">CustomerFeedback</text>
</g>
<!-- Customer&#45;&gt;CustomerFeedback -->
<g id="edge3" class="edge"><title>Customer&#45;&gt;CustomerFeedback</title>
<path fill="none" stroke="#684e37" d="M185.078,-234.079C163.868,-220.667 135.364,-202.642 113.244,-188.654"/>
<ellipse fill="none" stroke="#684e37" cx="188.549" cy="-236.273" rx="4.00002" ry="4.00002"/>
<polygon fill="#684e37" stroke="#684e37" points="112.953,-188.47 106.906,-179.322 108.727,-185.798 104.501,-183.125 104.501,-183.125 104.501,-183.125 108.727,-185.798 102.096,-186.929 112.953,-188.47 112.953,-188.47"/>
</g>
<!-- AdCampaign -->
<g id="node7" class="node"><title>AdCampaign</title>
<ellipse fill="none" stroke="black" cx="313" cy="-423" rx="57.2688" ry="18"/>
<text text-anchor="middle" x="313" y="-419.3" font-family="Times,serif" font-size="14.00">AdCampaign</text>
</g>
<!-- AdCampaign&#45;&gt;Advertisement -->
<g id="edge6" class="edge"><title>AdCampaign&#45;&gt;Advertisement</title>
<path fill="none" stroke="#c0992f" d="M323.847,-397.396C329.547,-384.467 336.537,-368.611 342.351,-355.423"/>
<ellipse fill="none" stroke="#c0992f" cx="322.134" cy="-401.282" rx="4.00002" ry="4.00002"/>
<polygon fill="#c0992f" stroke="#c0992f" points="342.494,-355.1 350.645,-347.765 344.511,-350.525 346.528,-345.949 346.528,-345.949 346.528,-345.949 344.511,-350.525 342.41,-344.134 342.494,-355.1 342.494,-355.1"/>
</g>
<!-- RecipientList -->
<g id="node9" class="node"><title>RecipientList</title>
<ellipse fill="none" stroke="black" cx="215" cy="-328" rx="57.2688" ry="18"/>
<text text-anchor="middle" x="215" y="-324.3" font-family="Times,serif" font-size="14.00">RecipientList</text>
</g>
<!-- AdCampaign&#45;&gt;RecipientList -->
<g id="edge7" class="edge"><title>AdCampaign&#45;&gt;RecipientList</title>
<path fill="none" stroke="#211633" d="M289.729,-399.917C274.134,-385.117 253.685,-365.711 238.121,-350.941"/>
<ellipse fill="none" stroke="#211633" cx="293.028" cy="-403.047" rx="4.00002" ry="4.00002"/>
<ellipse fill="#211633" stroke="#211633" cx="235.105" cy="-348.079" rx="4.00002" ry="4.00002"/>
</g>
<!-- BarcodeType -->
<g id="node12" class="node"><title>BarcodeType</title>
<ellipse fill="none" stroke="black" cx="251" cy="-18" rx="57.2688" ry="18"/>
<text text-anchor="middle" x="251" y="-14.3" font-family="Times,serif" font-size="14.00">BarcodeType</text>
</g>
<!-- Barcode&#45;&gt;BarcodeType -->
<g id="edge8" class="edge"><title>Barcode&#45;&gt;BarcodeType</title>
<path fill="none" stroke="#65e9b7" d="M251,-65.7923C251,-58.9744 251,-51.5875 251,-44.7408"/>
<ellipse fill="none" stroke="#65e9b7" cx="251" cy="-69.937" rx="4" ry="4"/>
<ellipse fill="#65e9b7" stroke="#65e9b7" cx="251" cy="-40.4407" rx="4" ry="4"/>
</g>
<!-- RecipientList&#45;&gt;Customer -->
<g id="edge9" class="edge"><title>RecipientList&#45;&gt;Customer</title>
<path fill="none" stroke="#fa4236" d="M215,-301.792C215,-295.58 215,-288.896 215,-282.579"/>
<ellipse fill="none" stroke="#fa4236" cx="215" cy="-305.937" rx="4" ry="4"/>
<polygon fill="#fa4236" stroke="#fa4236" points="215,-282.441 219.5,-272.441 215,-277.441 215,-272.441 215,-272.441 215,-272.441 215,-277.441 210.5,-272.441 215,-282.441 215,-282.441"/>
</g>
<!-- I18nKey -->
<g id="node11" class="node"><title>I18nKey</title>
<ellipse fill="none" stroke="black" cx="523" cy="-254" rx="41.394" ry="18"/>
<text text-anchor="middle" x="523" y="-250.3" font-family="Times,serif" font-size="14.00">I18nKey</text>
</g>
<!-- ShopType -->
<g id="node13" class="node"><title>ShopType</title>
<ellipse fill="none" stroke="black" cx="456" cy="-166" rx="46.1964" ry="18"/>
<text text-anchor="middle" x="456" y="-162.3" font-family="Times,serif" font-size="14.00">ShopType</text>
</g>
<!-- I18nKey&#45;&gt;ShopType -->
<g id="edge11" class="edge"><title>I18nKey&#45;&gt;ShopType</title>
<path fill="none" stroke="#d565fb" d="M477.174,-244.166C462.831,-239.011 448.536,-230.864 440,-218 434.629,-209.905 436.326,-199.903 440.209,-190.906"/>
<ellipse fill="none" stroke="#d565fb" cx="481.306" cy="-245.503" rx="4.00001" ry="4.00001"/>
<ellipse fill="#d565fb" stroke="#d565fb" cx="442.073" cy="-187.219" rx="4.00002" ry="4.00002"/>
<text text-anchor="middle" x="470.5" y="-206.3" font-family="Times,serif" font-size="14.00">i18n_name</text>
</g>
<!-- I18nKey&#45;&gt;ShopType -->
<g id="edge12" class="edge"><title>I18nKey&#45;&gt;ShopType</title>
<path fill="none" stroke="#a5df6c" d="M515.132,-228.039C511.647,-219.278 506.963,-209.708 501,-202 496.734,-196.486 491.409,-191.357 485.93,-186.818"/>
<ellipse fill="none" stroke="#a5df6c" cx="516.609" cy="-232.029" rx="4.00001" ry="4.00001"/>
<ellipse fill="#a5df6c" stroke="#a5df6c" cx="482.633" cy="-184.238" rx="4.00002" ry="4.00002"/>
<text text-anchor="middle" x="555.5" y="-206.3" font-family="Times,serif" font-size="14.00">i18n_description</text>
</g>
<!-- Translation -->
<g id="node14" class="node"><title>Translation</title>
<ellipse fill="none" stroke="black" cx="629" cy="-166" rx="50.5427" ry="18"/>
<text text-anchor="middle" x="629" y="-162.3" font-family="Times,serif" font-size="14.00">Translation</text>
</g>
<!-- I18nKey&#45;&gt;Translation -->
<g id="edge10" class="edge"><title>I18nKey&#45;&gt;Translation</title>
<path fill="none" stroke="#d812d7" d="M565.724,-241.472C579.541,-236.107 594.094,-228.516 605,-218 611.961,-211.288 617.124,-202.16 620.839,-193.48"/>
<ellipse fill="none" stroke="#d812d7" cx="561.911" cy="-242.86" rx="4.00001" ry="4.00001"/>
<polygon fill="#d812d7" stroke="#d812d7" points="620.881,-193.369 628.644,-185.624 622.66,-188.696 624.439,-184.023 624.439,-184.023 624.439,-184.023 622.66,-188.696 620.233,-182.423 620.881,-193.369 620.881,-193.369"/>
</g>
<!-- Translation&#45;&gt;Locale -->
<g id="edge13" class="edge"><title>Translation&#45;&gt;Locale</title>
<path fill="none" stroke="#5ac711" d="M629,-139.792C629,-132.974 629,-125.588 629,-118.741"/>
<ellipse fill="none" stroke="#5ac711" cx="629" cy="-143.937" rx="4" ry="4"/>
<ellipse fill="#5ac711" stroke="#5ac711" cx="629" cy="-114.441" rx="4" ry="4"/>
</g>
<!-- Shop -->
<g id="node15" class="node"><title>Shop</title>
<ellipse fill="none" stroke="black" cx="331" cy="-254" rx="28.3955" ry="18"/>
<text text-anchor="middle" x="331" y="-250.3" font-family="Times,serif" font-size="14.00">Shop</text>
</g>
<!-- Shop&#45;&gt;DiscountCard -->
<g id="edge15" class="edge"><title>Shop&#45;&gt;DiscountCard</title>
<path fill="none" stroke="#57f4b0" d="M331,-227.339C331,-216.855 331,-204.718 331,-194.091"/>
<ellipse fill="none" stroke="#57f4b0" cx="331" cy="-231.597" rx="4" ry="4"/>
<polygon fill="#57f4b0" stroke="#57f4b0" points="331,-194.084 335.5,-184.084 331,-189.084 331,-184.084 331,-184.084 331,-184.084 331,-189.084 326.5,-184.084 331,-194.084 331,-194.084"/>
</g>
<!-- Shop&#45;&gt;Coupon -->
<g id="edge16" class="edge"><title>Shop&#45;&gt;Coupon</title>
<path fill="none" stroke="#423822" d="M306.534,-234.861C287.895,-221.043 262.219,-202.007 242.803,-187.613"/>
<ellipse fill="none" stroke="#423822" cx="309.916" cy="-237.369" rx="4.00002" ry="4.00002"/>
<polygon fill="#423822" stroke="#423822" points="242.671,-187.515 237.318,-177.944 238.654,-184.537 234.638,-181.559 234.638,-181.559 234.638,-181.559 238.654,-184.537 231.958,-185.174 242.671,-187.515 242.671,-187.515"/>
</g>
<!-- Shop&#45;&gt;ShopType -->
<g id="edge14" class="edge"><title>Shop&#45;&gt;ShopType</title>
<path fill="none" stroke="#0fdb4a" d="M356.171,-235.682C376.782,-221.502 405.94,-201.441 427.425,-186.66"/>
<ellipse fill="none" stroke="#0fdb4a" cx="352.74" cy="-238.043" rx="4.00002" ry="4.00002"/>
<ellipse fill="#0fdb4a" stroke="#0fdb4a" cx="430.815" cy="-184.327" rx="4.00002" ry="4.00002"/>
</g>
</g>
</svg>
