<?xml version="1.0" encoding="UTF-8" standalone="no"?>
<!DOCTYPE svg PUBLIC "-//W3C//DTD SVG 1.1//EN"
 "http://www.w3.org/Graphics/SVG/1.1/DTD/svg11.dtd">
<!-- Generated by graphviz version 2.36.0 (20140111.2315)
 -->
<!-- Title: models_diagram Pages: 1 -->
<svg width="1300pt" height="1246pt"
 viewBox="0.00 0.00 1300.00 1246.00" xmlns="http://www.w3.org/2000/svg" xmlns:xlink="http://www.w3.org/1999/xlink">
<g id="graph0" class="graph" transform="scale(1 1) rotate(0) translate(4 1242)">
<title>models_diagram</title>
<polygon fill="none" stroke="none" points="-4,4 -4,-1242 1296,-1242 1296,4 -4,4"/>
<!-- _diagram_info -->
<g id="node1" class="node"><title>_diagram_info</title>
<text text-anchor="start" x="197" y="-1208.6" font-family="Times,serif" font-size="13.00">Models diagram</text>
<text text-anchor="start" x="197" y="-1194.6" font-family="Times,serif" font-size="13.00">Date: Dec 12 2015 &#45; 22:43</text>
<text text-anchor="start" x="197" y="-1180.6" font-family="Times,serif" font-size="13.00">Migration version: 20151207211752</text>
<text text-anchor="start" x="197" y="-1166.6" font-family="Times,serif" font-size="13.00">Generated by RailRoady 1.4.1</text>
<text text-anchor="start" x="197" y="-1152.6" font-family="Times,serif" font-size="13.00">http://railroady.prestonlee.com</text>
</g>
<!-- DiscountCard -->
<g id="node2" class="node"><title>DiscountCard</title>
<path fill="none" stroke="black" d="M536,-321C536,-321 756,-321 756,-321 762,-321 768,-327 768,-333 768,-333 768,-445 768,-445 768,-451 762,-457 756,-457 756,-457 536,-457 536,-457 530,-457 524,-451 524,-445 524,-445 524,-333 524,-333 524,-327 530,-321 536,-321"/>
<text text-anchor="middle" x="646" y="-441.8" font-family="Times,serif" font-size="14.00">DiscountCard</text>
<polyline fill="none" stroke="black" points="524,-434 768,-434 "/>
<text text-anchor="start" x="532" y="-418.8" font-family="Times,serif" font-size="14.00">id :integer</text>
<text text-anchor="start" x="532" y="-403.8" font-family="Times,serif" font-size="14.00">name :character varying</text>
<text text-anchor="start" x="532" y="-388.8" font-family="Times,serif" font-size="14.00">description :character varying</text>
<text text-anchor="start" x="532" y="-373.8" font-family="Times,serif" font-size="14.00">shop_id :integer</text>
<text text-anchor="start" x="532" y="-358.8" font-family="Times,serif" font-size="14.00">customer_id :integer</text>
<text text-anchor="start" x="532" y="-343.8" font-family="Times,serif" font-size="14.00">created_at :timestamp without time zone</text>
<text text-anchor="start" x="532" y="-328.8" font-family="Times,serif" font-size="14.00">updated_at :timestamp without time zone</text>
</g>
<!-- Barcode -->
<g id="node8" class="node"><title>Barcode</title>
<path fill="none" stroke="black" d="M346,-130.5C346,-130.5 566,-130.5 566,-130.5 572,-130.5 578,-136.5 578,-142.5 578,-142.5 578,-269.5 578,-269.5 578,-275.5 572,-281.5 566,-281.5 566,-281.5 346,-281.5 346,-281.5 340,-281.5 334,-275.5 334,-269.5 334,-269.5 334,-142.5 334,-142.5 334,-136.5 340,-130.5 346,-130.5"/>
<text text-anchor="middle" x="456" y="-266.3" font-family="Times,serif" font-size="14.00">Barcode</text>
<polyline fill="none" stroke="black" points="334,-258.5 578,-258.5 "/>
<text text-anchor="start" x="342" y="-243.3" font-family="Times,serif" font-size="14.00">id :integer</text>
<text text-anchor="start" x="342" y="-228.3" font-family="Times,serif" font-size="14.00">barcode :character varying</text>
<text text-anchor="start" x="342" y="-213.3" font-family="Times,serif" font-size="14.00">discount_percentage :double precision</text>
<text text-anchor="start" x="342" y="-198.3" font-family="Times,serif" font-size="14.00">extra_info :character varying</text>
<text text-anchor="start" x="342" y="-183.3" font-family="Times,serif" font-size="14.00">barcode_type_id :integer</text>
<text text-anchor="start" x="342" y="-168.3" font-family="Times,serif" font-size="14.00">discount_card_id :integer</text>
<text text-anchor="start" x="342" y="-153.3" font-family="Times,serif" font-size="14.00">created_at :timestamp without time zone</text>
<text text-anchor="start" x="342" y="-138.3" font-family="Times,serif" font-size="14.00">updated_at :timestamp without time zone</text>
</g>
<!-- DiscountCard&#45;&gt;Barcode -->
<g id="edge1" class="edge"><title>DiscountCard&#45;&gt;Barcode</title>
<path fill="none" stroke="#5242b9" d="M569.506,-315.129C559.919,-305.997 550.071,-296.615 540.372,-287.376"/>
<ellipse fill="none" stroke="#5242b9" cx="572.625" cy="-318.1" rx="4.00002" ry="4.00002"/>
<ellipse fill="#5242b9" stroke="#5242b9" cx="537.253" cy="-284.404" rx="4.00002" ry="4.00002"/>
</g>
<!-- Coupon -->
<g id="node3" class="node"><title>Coupon</title>
<path fill="none" stroke="black" d="M274,-321C274,-321 494,-321 494,-321 500,-321 506,-327 506,-333 506,-333 506,-445 506,-445 506,-451 500,-457 494,-457 494,-457 274,-457 274,-457 268,-457 262,-451 262,-445 262,-445 262,-333 262,-333 262,-327 268,-321 274,-321"/>
<text text-anchor="middle" x="384" y="-441.8" font-family="Times,serif" font-size="14.00">Coupon</text>
<polyline fill="none" stroke="black" points="262,-434 506,-434 "/>
<text text-anchor="start" x="270" y="-418.8" font-family="Times,serif" font-size="14.00">id :integer</text>
<text text-anchor="start" x="270" y="-403.8" font-family="Times,serif" font-size="14.00">description :text</text>
<text text-anchor="start" x="270" y="-388.8" font-family="Times,serif" font-size="14.00">barcode_id :integer</text>
<text text-anchor="start" x="270" y="-373.8" font-family="Times,serif" font-size="14.00">shop_id :integer</text>
<text text-anchor="start" x="270" y="-358.8" font-family="Times,serif" font-size="14.00">customer_id :integer</text>
<text text-anchor="start" x="270" y="-343.8" font-family="Times,serif" font-size="14.00">created_at :timestamp without time zone</text>
<text text-anchor="start" x="270" y="-328.8" font-family="Times,serif" font-size="14.00">updated_at :timestamp without time zone</text>
</g>
<!-- Coupon&#45;&gt;Barcode -->
<g id="edge2" class="edge"><title>Coupon&#45;&gt;Barcode</title>
<path fill="none" stroke="#85b605" d="M413.713,-313.305C416.833,-305.462 420.017,-297.456 423.17,-289.532"/>
<ellipse fill="none" stroke="#85b605" cx="412.186" cy="-317.143" rx="4.00001" ry="4.00001"/>
<ellipse fill="#85b605" stroke="#85b605" cx="424.829" cy="-285.361" rx="4.00001" ry="4.00001"/>
</g>
<!-- Locale -->
<g id="node4" class="node"><title>Locale</title>
<path fill="none" stroke="black" d="M1060,-153C1060,-153 1280,-153 1280,-153 1286,-153 1292,-159 1292,-165 1292,-165 1292,-247 1292,-247 1292,-253 1286,-259 1280,-259 1280,-259 1060,-259 1060,-259 1054,-259 1048,-253 1048,-247 1048,-247 1048,-165 1048,-165 1048,-159 1054,-153 1060,-153"/>
<text text-anchor="middle" x="1170" y="-243.8" font-family="Times,serif" font-size="14.00">Locale</text>
<polyline fill="none" stroke="black" points="1048,-236 1292,-236 "/>
<text text-anchor="start" x="1056" y="-220.8" font-family="Times,serif" font-size="14.00">id :integer</text>
<text text-anchor="start" x="1056" y="-205.8" font-family="Times,serif" font-size="14.00">name :character varying</text>
<text text-anchor="start" x="1056" y="-190.8" font-family="Times,serif" font-size="14.00">code :character varying</text>
<text text-anchor="start" x="1056" y="-175.8" font-family="Times,serif" font-size="14.00">created_at :timestamp without time zone</text>
<text text-anchor="start" x="1056" y="-160.8" font-family="Times,serif" font-size="14.00">updated_at :timestamp without time zone</text>
</g>
<!-- Advertisement -->
<g id="node5" class="node"><title>Advertisement</title>
<path fill="none" stroke="black" d="M504,-970.5C504,-970.5 724,-970.5 724,-970.5 730,-970.5 736,-976.5 736,-982.5 736,-982.5 736,-1079.5 736,-1079.5 736,-1085.5 730,-1091.5 724,-1091.5 724,-1091.5 504,-1091.5 504,-1091.5 498,-1091.5 492,-1085.5 492,-1079.5 492,-1079.5 492,-982.5 492,-982.5 492,-976.5 498,-970.5 504,-970.5"/>
<text text-anchor="middle" x="614" y="-1076.3" font-family="Times,serif" font-size="14.00">Advertisement</text>
<polyline fill="none" stroke="black" points="492,-1068.5 736,-1068.5 "/>
<text text-anchor="start" x="500" y="-1053.3" font-family="Times,serif" font-size="14.00">id :integer</text>
<text text-anchor="start" x="500" y="-1038.3" font-family="Times,serif" font-size="14.00">name :character varying</text>
<text text-anchor="start" x="500" y="-1023.3" font-family="Times,serif" font-size="14.00">ad_data :json</text>
<text text-anchor="start" x="500" y="-1008.3" font-family="Times,serif" font-size="14.00">ad_campaign_id :integer</text>
<text text-anchor="start" x="500" y="-993.3" font-family="Times,serif" font-size="14.00">created_at :timestamp without time zone</text>
<text text-anchor="start" x="500" y="-978.3" font-family="Times,serif" font-size="14.00">updated_at :timestamp without time zone</text>
</g>
<!-- Customer -->
<g id="node6" class="node"><title>Customer</title>
<path fill="none" stroke="black" d="M207.5,-540.5C207.5,-540.5 496.5,-540.5 496.5,-540.5 502.5,-540.5 508.5,-546.5 508.5,-552.5 508.5,-552.5 508.5,-889.5 508.5,-889.5 508.5,-895.5 502.5,-901.5 496.5,-901.5 496.5,-901.5 207.5,-901.5 207.5,-901.5 201.5,-901.5 195.5,-895.5 195.5,-889.5 195.5,-889.5 195.5,-552.5 195.5,-552.5 195.5,-546.5 201.5,-540.5 207.5,-540.5"/>
<text text-anchor="middle" x="352" y="-886.3" font-family="Times,serif" font-size="14.00">Customer</text>
<polyline fill="none" stroke="black" points="195.5,-878.5 508.5,-878.5 "/>
<text text-anchor="start" x="203.5" y="-863.3" font-family="Times,serif" font-size="14.00">id :integer</text>
<text text-anchor="start" x="203.5" y="-848.3" font-family="Times,serif" font-size="14.00">first_name :character varying</text>
<text text-anchor="start" x="203.5" y="-833.3" font-family="Times,serif" font-size="14.00">last_name :character varying</text>
<text text-anchor="start" x="203.5" y="-818.3" font-family="Times,serif" font-size="14.00">email :character varying</text>
<text text-anchor="start" x="203.5" y="-803.3" font-family="Times,serif" font-size="14.00">phone_number :character varying</text>
<text text-anchor="start" x="203.5" y="-788.3" font-family="Times,serif" font-size="14.00">city :character varying</text>
<text text-anchor="start" x="203.5" y="-773.3" font-family="Times,serif" font-size="14.00">country :character varying</text>
<text text-anchor="start" x="203.5" y="-758.3" font-family="Times,serif" font-size="14.00">created_at :timestamp without time zone</text>
<text text-anchor="start" x="203.5" y="-743.3" font-family="Times,serif" font-size="14.00">updated_at :timestamp without time zone</text>
<text text-anchor="start" x="203.5" y="-728.3" font-family="Times,serif" font-size="14.00">encrypted_password :character varying</text>
<text text-anchor="start" x="203.5" y="-713.3" font-family="Times,serif" font-size="14.00">reset_password_token :character varying</text>
<text text-anchor="start" x="203.5" y="-698.3" font-family="Times,serif" font-size="14.00">reset_password_sent_at :timestamp without time zone</text>
<text text-anchor="start" x="203.5" y="-683.3" font-family="Times,serif" font-size="14.00">remember_created_at :timestamp without time zone</text>
<text text-anchor="start" x="203.5" y="-668.3" font-family="Times,serif" font-size="14.00">sign_in_count :integer</text>
<text text-anchor="start" x="203.5" y="-653.3" font-family="Times,serif" font-size="14.00">current_sign_in_at :timestamp without time zone</text>
<text text-anchor="start" x="203.5" y="-638.3" font-family="Times,serif" font-size="14.00">last_sign_in_at :timestamp without time zone</text>
<text text-anchor="start" x="203.5" y="-623.3" font-family="Times,serif" font-size="14.00">current_sign_in_ip :inet</text>
<text text-anchor="start" x="203.5" y="-608.3" font-family="Times,serif" font-size="14.00">last_sign_in_ip :inet</text>
<text text-anchor="start" x="203.5" y="-593.3" font-family="Times,serif" font-size="14.00">confirmation_token :character varying</text>
<text text-anchor="start" x="203.5" y="-578.3" font-family="Times,serif" font-size="14.00">confirmed_at :timestamp without time zone</text>
<text text-anchor="start" x="203.5" y="-563.3" font-family="Times,serif" font-size="14.00">confirmation_sent_at :timestamp without time zone</text>
<text text-anchor="start" x="203.5" y="-548.3" font-family="Times,serif" font-size="14.00">unconfirmed_email :character varying</text>
</g>
<!-- Customer&#45;&gt;DiscountCard -->
<g id="edge4" class="edge"><title>Customer&#45;&gt;DiscountCard</title>
<path fill="none" stroke="#401ff0" d="M495.573,-533.972C502.708,-525.777 509.871,-517.749 517,-510 531.06,-494.717 546.735,-479.101 562.18,-464.403"/>
<ellipse fill="none" stroke="#401ff0" cx="492.741" cy="-537.244" rx="4.00002" ry="4.00002"/>
<polygon fill="#401ff0" stroke="#401ff0" points="562.465,-464.133 572.825,-460.538 566.1,-460.7 569.735,-457.267 569.735,-457.267 569.735,-457.267 566.1,-460.7 566.645,-453.995 562.465,-464.133 562.465,-464.133"/>
</g>
<!-- Customer&#45;&gt;Coupon -->
<g id="edge5" class="edge"><title>Customer&#45;&gt;Coupon</title>
<path fill="none" stroke="#9d8200" d="M370.256,-531.739C372.456,-509.045 374.599,-486.951 376.512,-467.219"/>
<ellipse fill="none" stroke="#9d8200" cx="369.837" cy="-536.052" rx="4" ry="4"/>
<polygon fill="#9d8200" stroke="#9d8200" points="376.526,-467.079 381.97,-457.56 377.008,-462.102 377.491,-457.125 377.491,-457.125 377.491,-457.125 377.008,-462.102 373.012,-456.691 376.526,-467.079 376.526,-467.079"/>
</g>
<!-- CustomerFeedback -->
<g id="node10" class="node"><title>CustomerFeedback</title>
<path fill="none" stroke="black" d="M12,-328.5C12,-328.5 232,-328.5 232,-328.5 238,-328.5 244,-334.5 244,-340.5 244,-340.5 244,-437.5 244,-437.5 244,-443.5 238,-449.5 232,-449.5 232,-449.5 12,-449.5 12,-449.5 6,-449.5 0,-443.5 0,-437.5 0,-437.5 0,-340.5 0,-340.5 0,-334.5 6,-328.5 12,-328.5"/>
<text text-anchor="middle" x="122" y="-434.3" font-family="Times,serif" font-size="14.00">CustomerFeedback</text>
<polyline fill="none" stroke="black" points="0,-426.5 244,-426.5 "/>
<text text-anchor="start" x="8" y="-411.3" font-family="Times,serif" font-size="14.00">id :integer</text>
<text text-anchor="start" x="8" y="-396.3" font-family="Times,serif" font-size="14.00">feedback :text</text>
<text text-anchor="start" x="8" y="-381.3" font-family="Times,serif" font-size="14.00">rating :integer</text>
<text text-anchor="start" x="8" y="-366.3" font-family="Times,serif" font-size="14.00">customer_id :integer</text>
<text text-anchor="start" x="8" y="-351.3" font-family="Times,serif" font-size="14.00">created_at :timestamp without time zone</text>
<text text-anchor="start" x="8" y="-336.3" font-family="Times,serif" font-size="14.00">updated_at :timestamp without time zone</text>
</g>
<!-- Customer&#45;&gt;CustomerFeedback -->
<g id="edge3" class="edge"><title>Customer&#45;&gt;CustomerFeedback</title>
<path fill="none" stroke="#729ed8" d="M221.788,-533.175C203.149,-506.43 185.051,-480.465 169.502,-458.156"/>
<ellipse fill="none" stroke="#729ed8" cx="224.281" cy="-536.751" rx="4.00002" ry="4.00002"/>
<polygon fill="#729ed8" stroke="#729ed8" points="169.39,-457.994 167.364,-447.217 166.531,-453.892 163.672,-449.79 163.672,-449.79 163.672,-449.79 166.531,-453.892 159.98,-452.363 169.39,-457.994 169.39,-457.994"/>
</g>
<!-- AdCampaign -->
<g id="node7" class="node"><title>AdCampaign</title>
<path fill="none" stroke="black" d="M433,-1131C433,-1131 653,-1131 653,-1131 659,-1131 665,-1137 665,-1143 665,-1143 665,-1225 665,-1225 665,-1231 659,-1237 653,-1237 653,-1237 433,-1237 433,-1237 427,-1237 421,-1231 421,-1225 421,-1225 421,-1143 421,-1143 421,-1137 427,-1131 433,-1131"/>
<text text-anchor="middle" x="543" y="-1221.8" font-family="Times,serif" font-size="14.00">AdCampaign</text>
<polyline fill="none" stroke="black" points="421,-1214 665,-1214 "/>
<text text-anchor="start" x="429" y="-1198.8" font-family="Times,serif" font-size="14.00">id :integer</text>
<text text-anchor="start" x="429" y="-1183.8" font-family="Times,serif" font-size="14.00">description :text</text>
<text text-anchor="start" x="429" y="-1168.8" font-family="Times,serif" font-size="14.00">shop_id :integer</text>
<text text-anchor="start" x="429" y="-1153.8" font-family="Times,serif" font-size="14.00">created_at :timestamp without time zone</text>
<text text-anchor="start" x="429" y="-1138.8" font-family="Times,serif" font-size="14.00">updated_at :timestamp without time zone</text>
</g>
<!-- AdCampaign&#45;&gt;Advertisement -->
<g id="edge6" class="edge"><title>AdCampaign&#45;&gt;Advertisement</title>
<path fill="none" stroke="#040b0b" d="M571.152,-1123.13C574.588,-1115.82 578.121,-1108.31 581.613,-1100.88"/>
<ellipse fill="none" stroke="#040b0b" cx="569.335" cy="-1126.99" rx="4.00002" ry="4.00002"/>
<polygon fill="#040b0b" stroke="#040b0b" points="581.749,-1100.59 590.077,-1093.46 583.877,-1096.07 586.004,-1091.54 586.004,-1091.54 586.004,-1091.54 583.877,-1096.07 581.932,-1089.63 581.749,-1100.59 581.749,-1100.59"/>
</g>
<!-- RecipientList -->
<g id="node9" class="node"><title>RecipientList</title>
<path fill="none" stroke="black" d="M242,-978C242,-978 462,-978 462,-978 468,-978 474,-984 474,-990 474,-990 474,-1072 474,-1072 474,-1078 468,-1084 462,-1084 462,-1084 242,-1084 242,-1084 236,-1084 230,-1078 230,-1072 230,-1072 230,-990 230,-990 230,-984 236,-978 242,-978"/>
<text text-anchor="middle" x="352" y="-1068.8" font-family="Times,serif" font-size="14.00">RecipientList</text>
<polyline fill="none" stroke="black" points="230,-1061 474,-1061 "/>
<text text-anchor="start" x="238" y="-1045.8" font-family="Times,serif" font-size="14.00">id :integer</text>
<text text-anchor="start" x="238" y="-1030.8" font-family="Times,serif" font-size="14.00">ad_campaign_id :integer</text>
<text text-anchor="start" x="238" y="-1015.8" font-family="Times,serif" font-size="14.00">customer_id :integer</text>
<text text-anchor="start" x="238" y="-1000.8" font-family="Times,serif" font-size="14.00">created_at :timestamp without time zone</text>
<text text-anchor="start" x="238" y="-985.8" font-family="Times,serif" font-size="14.00">updated_at :timestamp without time zone</text>
</g>
<!-- AdCampaign&#45;&gt;RecipientList -->
<g id="edge7" class="edge"><title>AdCampaign&#45;&gt;RecipientList</title>
<path fill="none" stroke="#a248cb" d="M470.681,-1125.83C455.543,-1113.86 439.578,-1101.24 424.436,-1089.27"/>
<ellipse fill="none" stroke="#a248cb" cx="473.863" cy="-1128.34" rx="4.00002" ry="4.00002"/>
<ellipse fill="#a248cb" stroke="#a248cb" cx="421.139" cy="-1086.66" rx="4.00002" ry="4.00002"/>
</g>
<!-- BarcodeType -->
<g id="node12" class="node"><title>BarcodeType</title>
<path fill="none" stroke="black" d="M346,-0.5C346,-0.5 566,-0.5 566,-0.5 572,-0.5 578,-6.5 578,-12.5 578,-12.5 578,-79.5 578,-79.5 578,-85.5 572,-91.5 566,-91.5 566,-91.5 346,-91.5 346,-91.5 340,-91.5 334,-85.5 334,-79.5 334,-79.5 334,-12.5 334,-12.5 334,-6.5 340,-0.5 346,-0.5"/>
<text text-anchor="middle" x="456" y="-76.3" font-family="Times,serif" font-size="14.00">BarcodeType</text>
<polyline fill="none" stroke="black" points="334,-68.5 578,-68.5 "/>
<text text-anchor="start" x="342" y="-53.3" font-family="Times,serif" font-size="14.00">id :integer</text>
<text text-anchor="start" x="342" y="-38.3" font-family="Times,serif" font-size="14.00">barcode_type :character varying</text>
<text text-anchor="start" x="342" y="-23.3" font-family="Times,serif" font-size="14.00">created_at :timestamp without time zone</text>
<text text-anchor="start" x="342" y="-8.3" font-family="Times,serif" font-size="14.00">updated_at :timestamp without time zone</text>
</g>
<!-- Barcode&#45;&gt;BarcodeType -->
<g id="edge8" class="edge"><title>Barcode&#45;&gt;BarcodeType</title>
<path fill="none" stroke="#d16f10" d="M456,-121.88C456,-114.461 456,-107.09 456,-100.031"/>
<ellipse fill="none" stroke="#d16f10" cx="456" cy="-126.164" rx="4" ry="4"/>
<ellipse fill="#d16f10" stroke="#d16f10" cx="456" cy="-95.9033" rx="4" ry="4"/>
</g>
<!-- RecipientList&#45;&gt;Customer -->
<g id="edge9" class="edge"><title>RecipientList&#45;&gt;Customer</title>
<path fill="none" stroke="#dc3e35" d="M352,-969.657C352,-952.406 352,-932.628 352,-911.932"/>
<ellipse fill="none" stroke="#dc3e35" cx="352" cy="-973.752" rx="4" ry="4"/>
<polygon fill="#dc3e35" stroke="#dc3e35" points="352,-911.706 356.5,-901.706 352,-906.706 352,-901.706 352,-901.706 352,-901.706 352,-906.706 347.5,-901.706 352,-911.706 352,-911.706"/>
</g>
<!-- I18nKey -->
<g id="node11" class="node"><title>I18nKey</title>
<path fill="none" stroke="black" d="M882,-675.5C882,-675.5 1102,-675.5 1102,-675.5 1108,-675.5 1114,-681.5 1114,-687.5 1114,-687.5 1114,-754.5 1114,-754.5 1114,-760.5 1108,-766.5 1102,-766.5 1102,-766.5 882,-766.5 882,-766.5 876,-766.5 870,-760.5 870,-754.5 870,-754.5 870,-687.5 870,-687.5 870,-681.5 876,-675.5 882,-675.5"/>
<text text-anchor="middle" x="992" y="-751.3" font-family="Times,serif" font-size="14.00">I18nKey</text>
<polyline fill="none" stroke="black" points="870,-743.5 1114,-743.5 "/>
<text text-anchor="start" x="878" y="-728.3" font-family="Times,serif" font-size="14.00">id :integer</text>
<text text-anchor="start" x="878" y="-713.3" font-family="Times,serif" font-size="14.00">key_name :character varying</text>
<text text-anchor="start" x="878" y="-698.3" font-family="Times,serif" font-size="14.00">created_at :timestamp without time zone</text>
<text text-anchor="start" x="878" y="-683.3" font-family="Times,serif" font-size="14.00">updated_at :timestamp without time zone</text>
</g>
<!-- ShopType -->
<g id="node13" class="node"><title>ShopType</title>
<path fill="none" stroke="black" d="M798,-328.5C798,-328.5 1018,-328.5 1018,-328.5 1024,-328.5 1030,-334.5 1030,-340.5 1030,-340.5 1030,-437.5 1030,-437.5 1030,-443.5 1024,-449.5 1018,-449.5 1018,-449.5 798,-449.5 798,-449.5 792,-449.5 786,-443.5 786,-437.5 786,-437.5 786,-340.5 786,-340.5 786,-334.5 792,-328.5 798,-328.5"/>
<text text-anchor="middle" x="908" y="-434.3" font-family="Times,serif" font-size="14.00">ShopType</text>
<polyline fill="none" stroke="black" points="786,-426.5 1030,-426.5 "/>
<text text-anchor="start" x="794" y="-411.3" font-family="Times,serif" font-size="14.00">id :integer</text>
<text text-anchor="start" x="794" y="-396.3" font-family="Times,serif" font-size="14.00">created_at :timestamp without time zone</text>
<text text-anchor="start" x="794" y="-381.3" font-family="Times,serif" font-size="14.00">updated_at :timestamp without time zone</text>
<text text-anchor="start" x="794" y="-366.3" font-family="Times,serif" font-size="14.00">i18n_name_id :integer</text>
<text text-anchor="start" x="794" y="-351.3" font-family="Times,serif" font-size="14.00">i18n_description_id :integer</text>
<text text-anchor="start" x="794" y="-336.3" font-family="Times,serif" font-size="14.00">shop_id :integer</text>
</g>
<!-- I18nKey&#45;&gt;ShopType -->
<g id="edge11" class="edge"><title>I18nKey&#45;&gt;ShopType</title>
<path fill="none" stroke="#5570bb" d="M967.331,-668.062C947.223,-622.745 920.361,-554.623 909,-492 907.016,-481.063 905.945,-469.358 905.458,-457.918"/>
<ellipse fill="none" stroke="#5570bb" cx="968.988" cy="-671.763" rx="4.00002" ry="4.00002"/>
<ellipse fill="#5570bb" stroke="#5570bb" cx="905.326" cy="-453.648" rx="4" ry="4"/>
<text text-anchor="middle" x="939.5" y="-480.3" font-family="Times,serif" font-size="14.00">i18n_name</text>
</g>
<!-- I18nKey&#45;&gt;ShopType -->
<g id="edge12" class="edge"><title>I18nKey&#45;&gt;ShopType</title>
<path fill="none" stroke="#91f894" d="M995.146,-667.057C996.346,-616.401 993.39,-538.658 970,-476 967.594,-469.555 964.569,-463.159 961.157,-456.935"/>
<ellipse fill="none" stroke="#91f894" cx="995.025" cy="-671.26" rx="4" ry="4"/>
<ellipse fill="#91f894" stroke="#91f894" cx="958.988" cy="-453.179" rx="4.00002" ry="4.00002"/>
<text text-anchor="middle" x="1019.5" y="-480.3" font-family="Times,serif" font-size="14.00">i18n_description</text>
</g>
<!-- Translation -->
<g id="node14" class="node"><title>Translation</title>
<path fill="none" stroke="black" d="M1060,-328.5C1060,-328.5 1280,-328.5 1280,-328.5 1286,-328.5 1292,-334.5 1292,-340.5 1292,-340.5 1292,-437.5 1292,-437.5 1292,-443.5 1286,-449.5 1280,-449.5 1280,-449.5 1060,-449.5 1060,-449.5 1054,-449.5 1048,-443.5 1048,-437.5 1048,-437.5 1048,-340.5 1048,-340.5 1048,-334.5 1054,-328.5 1060,-328.5"/>
<text text-anchor="middle" x="1170" y="-434.3" font-family="Times,serif" font-size="14.00">Translation</text>
<polyline fill="none" stroke="black" points="1048,-426.5 1292,-426.5 "/>
<text text-anchor="start" x="1056" y="-411.3" font-family="Times,serif" font-size="14.00">id :integer</text>
<text text-anchor="start" x="1056" y="-396.3" font-family="Times,serif" font-size="14.00">translation :character varying</text>
<text text-anchor="start" x="1056" y="-381.3" font-family="Times,serif" font-size="14.00">i18n_key_id :integer</text>
<text text-anchor="start" x="1056" y="-366.3" font-family="Times,serif" font-size="14.00">locale_id :integer</text>
<text text-anchor="start" x="1056" y="-351.3" font-family="Times,serif" font-size="14.00">created_at :timestamp without time zone</text>
<text text-anchor="start" x="1056" y="-336.3" font-family="Times,serif" font-size="14.00">updated_at :timestamp without time zone</text>
</g>
<!-- I18nKey&#45;&gt;Translation -->
<g id="edge10" class="edge"><title>I18nKey&#45;&gt;Translation</title>
<path fill="none" stroke="#410015" d="M1019.99,-668.101C1050.47,-611.609 1099.33,-521.02 1132.96,-458.671"/>
<ellipse fill="none" stroke="#410015" cx="1017.9" cy="-671.974" rx="4.00002" ry="4.00002"/>
<polygon fill="#410015" stroke="#410015" points="1133.06,-458.486 1141.77,-451.821 1135.43,-454.085 1137.81,-449.684 1137.81,-449.684 1137.81,-449.684 1135.43,-454.085 1133.85,-447.548 1133.06,-458.486 1133.06,-458.486"/>
</g>
<!-- Translation&#45;&gt;Locale -->
<g id="edge13" class="edge"><title>Translation&#45;&gt;Locale</title>
<path fill="none" stroke="#078d62" d="M1170,-320.246C1170,-302.904 1170,-284.372 1170,-267.426"/>
<ellipse fill="none" stroke="#078d62" cx="1170" cy="-324.483" rx="4" ry="4"/>
<ellipse fill="#078d62" stroke="#078d62" cx="1170" cy="-263.247" rx="4" ry="4"/>
</g>
<!-- Shop -->
<g id="node15" class="node"><title>Shop</title>
<path fill="none" stroke="black" d="M538.5,-510.5C538.5,-510.5 827.5,-510.5 827.5,-510.5 833.5,-510.5 839.5,-516.5 839.5,-522.5 839.5,-522.5 839.5,-919.5 839.5,-919.5 839.5,-925.5 833.5,-931.5 827.5,-931.5 827.5,-931.5 538.5,-931.5 538.5,-931.5 532.5,-931.5 526.5,-925.5 526.5,-919.5 526.5,-919.5 526.5,-522.5 526.5,-522.5 526.5,-516.5 532.5,-510.5 538.5,-510.5"/>
<text text-anchor="middle" x="683" y="-916.3" font-family="Times,serif" font-size="14.00">Shop</text>
<polyline fill="none" stroke="black" points="526.5,-908.5 839.5,-908.5 "/>
<text text-anchor="start" x="534.5" y="-893.3" font-family="Times,serif" font-size="14.00">id :integer</text>
<text text-anchor="start" x="534.5" y="-878.3" font-family="Times,serif" font-size="14.00">name :character varying</text>
<text text-anchor="start" x="534.5" y="-863.3" font-family="Times,serif" font-size="14.00">description :text</text>
<text text-anchor="start" x="534.5" y="-848.3" font-family="Times,serif" font-size="14.00">chain_store :character varying</text>
<text text-anchor="start" x="534.5" y="-833.3" font-family="Times,serif" font-size="14.00">address :text</text>
<text text-anchor="start" x="534.5" y="-818.3" font-family="Times,serif" font-size="14.00">city :character varying</text>
<text text-anchor="start" x="534.5" y="-803.3" font-family="Times,serif" font-size="14.00">country :character varying</text>
<text text-anchor="start" x="534.5" y="-788.3" font-family="Times,serif" font-size="14.00">created_at :timestamp without time zone</text>
<text text-anchor="start" x="534.5" y="-773.3" font-family="Times,serif" font-size="14.00">updated_at :timestamp without time zone</text>
<text text-anchor="start" x="534.5" y="-758.3" font-family="Times,serif" font-size="14.00">email :character varying</text>
<text text-anchor="start" x="534.5" y="-743.3" font-family="Times,serif" font-size="14.00">encrypted_password :character varying</text>
<text text-anchor="start" x="534.5" y="-728.3" font-family="Times,serif" font-size="14.00">reset_password_token :character varying</text>
<text text-anchor="start" x="534.5" y="-713.3" font-family="Times,serif" font-size="14.00">reset_password_sent_at :timestamp without time zone</text>
<text text-anchor="start" x="534.5" y="-698.3" font-family="Times,serif" font-size="14.00">remember_created_at :timestamp without time zone</text>
<text text-anchor="start" x="534.5" y="-683.3" font-family="Times,serif" font-size="14.00">sign_in_count :integer</text>
<text text-anchor="start" x="534.5" y="-668.3" font-family="Times,serif" font-size="14.00">current_sign_in_at :timestamp without time zone</text>
<text text-anchor="start" x="534.5" y="-653.3" font-family="Times,serif" font-size="14.00">last_sign_in_at :timestamp without time zone</text>
<text text-anchor="start" x="534.5" y="-638.3" font-family="Times,serif" font-size="14.00">current_sign_in_ip :inet</text>
<text text-anchor="start" x="534.5" y="-623.3" font-family="Times,serif" font-size="14.00">last_sign_in_ip :inet</text>
<text text-anchor="start" x="534.5" y="-608.3" font-family="Times,serif" font-size="14.00">confirmation_token :character varying</text>
<text text-anchor="start" x="534.5" y="-593.3" font-family="Times,serif" font-size="14.00">confirmed_at :timestamp without time zone</text>
<text text-anchor="start" x="534.5" y="-578.3" font-family="Times,serif" font-size="14.00">confirmation_sent_at :timestamp without time zone</text>
<text text-anchor="start" x="534.5" y="-563.3" font-family="Times,serif" font-size="14.00">unconfirmed_email :character varying</text>
<text text-anchor="start" x="534.5" y="-548.3" font-family="Times,serif" font-size="14.00">failed_attempts :integer</text>
<text text-anchor="start" x="534.5" y="-533.3" font-family="Times,serif" font-size="14.00">unlock_token :character varying</text>
<text text-anchor="start" x="534.5" y="-518.3" font-family="Times,serif" font-size="14.00">locked_at :timestamp without time zone</text>
</g>
<!-- Shop&#45;&gt;DiscountCard -->
<g id="edge15" class="edge"><title>Shop&#45;&gt;DiscountCard</title>
<path fill="none" stroke="#301528" d="M658.53,-501.753C657.188,-489.789 655.894,-478.244 654.679,-467.408"/>
<ellipse fill="none" stroke="#301528" cx="659.017" cy="-506.096" rx="4.00001" ry="4.00001"/>
<polygon fill="#301528" stroke="#301528" points="654.654,-467.184 658.012,-456.745 654.097,-462.215 653.54,-457.247 653.54,-457.247 653.54,-457.247 654.097,-462.215 649.068,-457.748 654.654,-467.184 654.654,-467.184"/>
</g>
<!-- Shop&#45;&gt;Coupon -->
<g id="edge16" class="edge"><title>Shop&#45;&gt;Coupon</title>
<path fill="none" stroke="#ca928e" d="M520.778,-514.056C519.518,-512.695 518.259,-511.343 517,-510 502.565,-494.592 486.432,-478.917 470.517,-464.2"/>
<ellipse fill="none" stroke="#ca928e" cx="523.597" cy="-517.124" rx="4.00002" ry="4.00002"/>
<polygon fill="#ca928e" stroke="#ca928e" points="470.1,-463.817 465.772,-453.741 466.415,-460.437 462.73,-457.057 462.73,-457.057 462.73,-457.057 466.415,-460.437 459.688,-460.373 470.1,-463.817 470.1,-463.817"/>
</g>
<!-- Shop&#45;&gt;ShopType -->
<g id="edge14" class="edge"><title>Shop&#45;&gt;ShopType</title>
<path fill="none" stroke="#67e5cf" d="M830.65,-503.446C842.029,-486.758 852.874,-470.851 862.652,-456.51"/>
<ellipse fill="none" stroke="#67e5cf" cx="828.387" cy="-506.766" rx="4.00002" ry="4.00002"/>
<ellipse fill="#67e5cf" stroke="#67e5cf" cx="865.111" cy="-452.904" rx="4.00002" ry="4.00002"/>
</g>
</g>
</svg>
